<?xml version="1.0" encoding="UTF-8"?>
<svg width="96px" height="60px" viewBox="0 0 96 60" version="1.1" xmlns="http://www.w3.org/2000/svg" xmlns:xlink="http://www.w3.org/1999/xlink">
    <!-- Generator: Sketch 57.1 (83088) - https://sketch.com -->
    <title>icon-wallpaper-official-light</title>
    <desc>Created with Sketch.</desc>
    <g id="设置项内图标" stroke="none" stroke-width="1" fill="none" fill-rule="evenodd">
        <g id="icon-wallpaper-official-light">
            <g id="icon-wallpaper-color" fill="#F5F5F5" fill-rule="nonzero">
                <rect id="Rectangle" x="0" y="0" width="96" height="60" rx="3"></rect>
            </g>
            <path d="M34.2,20.5053817 C34.6025401,20.5053817 34.9782647,20.7072121 35.200516,21.0428352 L38.7094939,26.341767 C39.319351,27.2627165 40.560315,27.5149067 41.4812646,26.9050495 C41.7048968,26.7569592 41.8964568,26.5653992 42.0445471,26.341767 L45.553525,21.0428352 C45.9194393,20.4902655 46.6640177,20.3389514 47.2165874,20.7048657 C47.5522106,20.927117 47.754041,21.3028416 47.754041,21.7053817 L47.754041,38 C47.754041,39.1045695 46.8586105,40 45.754041,40 L35,40 C33.8954305,40 33,39.1045695 33,38 L33,21.7053817 C33,21.04264 33.5372583,20.5053817 34.2,20.5053817 Z M60.9831386,20.1953963 C62.0877081,20.1953963 62.9831386,21.0908268 62.9831386,22.1953963 C62.9831386,22.6259337 62.8442066,23.0449777 62.5869947,23.3902376 L58.4802016,28.9028569 C57.9520097,29.611858 57.9520097,30.5835384 58.4802016,31.2925395 L62.5869947,36.8051587 C63.2468873,37.690944 63.0637652,38.9439634 62.1779799,39.6038561 C61.83272,39.8610679 61.4136759,40 60.9831386,40 L52.2130478,40 C51.1084783,40 50.2130478,39.1045695 50.2130478,38 L50.2130478,22.1953963 C50.2130478,21.0908268 51.1084783,20.1953963 52.2130478,20.1953963 L60.9831386,20.1953963 Z" id="形状结合" fill="#CFCFCF"></path>
        </g>
    </g>
</svg>