<?xml version="1.0" encoding="UTF-8"?>
<svg width="60px" height="60px" viewBox="0 0 60 60" version="1.1" xmlns="http://www.w3.org/2000/svg" xmlns:xlink="http://www.w3.org/1999/xlink">
    <title>icon-todo-default</title>
    <defs>
        <circle id="path-1" cx="30" cy="30" r="30"></circle>
    </defs>
    <g id="页面-2" stroke="none" stroke-width="1" fill="none" fill-rule="evenodd">
        <g id="Index-待办事项-所有-缺省页" transform="translate(-806.000000, -499.000000)">
            <g id="icon-todo-default" transform="translate(806.000000, 499.000000)">
                <g id="形状结合">
                    <mask id="mask-2" fill="white">
                        <use xlink:href="#path-1"></use>
                    </mask>
                    <use id="蒙版" fill="#1492FF" opacity="0.200000003" xlink:href="#path-1"></use>
                    <path d="M46,18 C47.1045695,18 48,18.8954305 48,20 L48,58 C48,59.1045695 47.1045695,60 46,60 L14,60 C12.8954305,60 12,59.1045695 12,58 L12,20 C12,18.8954305 12.8954305,18 14,18 L46,18 Z M39,50 L25,50 C24.4477153,50 24,50.4477153 24,51 C24,51.5522847 24.4477153,52 25,52 L25,52 L39,52 C39.5522847,52 40,51.5522847 40,51 C40,50.4477153 39.5522847,50 39,50 L39,50 Z M43,46 L25,46 C24.4477153,46 24,46.4477153 24,47 C24,47.5522847 24.4477153,48 25,48 L25,48 L43,48 C43.5522847,48 44,47.5522847 44,47 C44,46.4477153 43.5522847,46 43,46 L43,46 Z M39,40 L25,40 C24.4477153,40 24,40.4477153 24,41 C24,41.5522847 24.4477153,42 25,42 L25,42 L39,42 C39.5522847,42 40,41.5522847 40,41 C40,40.4477153 39.5522847,40 39,40 L39,40 Z M43,36 L25,36 C24.4477153,36 24,36.4477153 24,37 C24,37.5522847 24.4477153,38 25,38 L25,38 L43,38 C43.5522847,38 44,37.5522847 44,37 C44,36.4477153 43.5522847,36 43,36 L43,36 Z M39,30 L25,30 C24.4477153,30 24,30.4477153 24,31 C24,31.5522847 24.4477153,32 25,32 L25,32 L39,32 C39.5522847,32 40,31.5522847 40,31 C40,30.4477153 39.5522847,30 39,30 L39,30 Z M43,26 L25,26 C24.4477153,26 24,26.4477153 24,27 C24,27.5522847 24.4477153,28 25,28 L25,28 L43,28 C43.5522847,28 44,27.5522847 44,27 C44,26.4477153 43.5522847,26 43,26 L43,26 Z" fill="#FFFFFF" mask="url(#mask-2)"></path>
                </g>
                <rect id="矩形" stroke="#A1D3FF" x="16.5" y="46.5" width="5" height="5" rx="2"></rect>
                <path d="M20.3000003,50.4000003 L18.3000003,50.4000003 L18.3000003,49.4000003 L19.3000003,49.4000003 L19.3000003,46.4000003 L20.3000003,46.4000003 L20.3000003,50.4000003 Z" id="形状结合" fill="#1492FF" transform="translate(19.300000, 48.400000) rotate(-315.000000) translate(-19.300000, -48.400000) "></path>
                <rect id="矩形" stroke="#A1D3FF" x="16.5" y="36.5" width="5" height="5" rx="2"></rect>
                <path d="M20.3000003,40.4000003 L18.3000003,40.4000003 L18.3000003,39.4000003 L19.3000003,39.4000003 L19.3000003,36.4000003 L20.3000003,36.4000003 L20.3000003,40.4000003 Z" id="形状结合" fill="#1492FF" transform="translate(19.300000, 38.400000) rotate(-315.000000) translate(-19.300000, -38.400000) "></path>
                <rect id="矩形" stroke="#A1D3FF" x="16.5" y="26.5" width="5" height="5" rx="2"></rect>
                <path d="M20.3000003,30.4000003 L18.3000003,30.4000003 L18.3000003,29.4000003 L19.3000003,29.4000003 L19.3000003,26.4000003 L20.3000003,26.4000003 L20.3000003,30.4000003 Z" id="形状结合" fill="#1492FF" transform="translate(19.300000, 28.400000) rotate(-315.000000) translate(-19.300000, -28.400000) "></path>
                <polygon id="星形" fill="#FFFFFF" transform="translate(44.242641, 13.242641) rotate(-45.000000) translate(-44.242641, -13.242641) " points="44.2426407 14.5313544 42.1213203 15.363961 42.953927 13.2426407 42.1213203 11.1213203 44.2426407 11.953927 46.363961 11.1213203 45.5313544 13.2426407 46.363961 15.363961"></polygon>
                <polygon id="星形" fill="#FFFFFF" transform="translate(52.742641, 23.449747) rotate(-45.000000) translate(-52.742641, -23.449747) " points="52.7426407 24.7384612 50.6213203 25.5710678 51.453927 23.4497475 50.6213203 21.3284271 52.7426407 22.1610337 54.863961 21.3284271 54.0313544 23.4497475 54.863961 25.5710678"></polygon>
                <polygon id="星形" fill="#FFFFFF" transform="translate(51.742641, 15.449747) rotate(-45.000000) translate(-51.742641, -15.449747) " points="51.7426407 16.30889 50.3284271 16.863961 50.8834982 15.4497475 50.3284271 14.0355339 51.7426407 14.590605 53.1568542 14.0355339 52.6017832 15.4497475 53.1568542 16.863961"></polygon>
                <polygon id="星形" fill="#1492FF" opacity="0.2" transform="translate(53.000000, 5.000000) rotate(-45.000000) translate(-53.000000, -5.000000) " points="53 5.85914249 51.5857864 6.41421356 52.1408575 5 51.5857864 3.58578644 53 4.14085751 54.4142136 3.58578644 53.8591425 5 54.4142136 6.41421356"></polygon>
                <polygon id="星形" fill="#1492FF" opacity="0.2" transform="translate(57.000000, 11.000000) rotate(-45.000000) translate(-57.000000, -11.000000) " points="57 11.8591425 55.5857864 12.4142136 56.1408575 11 55.5857864 9.58578644 57 10.1408575 58.4142136 9.58578644 57.8591425 11 58.4142136 12.4142136"></polygon>
            </g>
        </g>
    </g>
</svg>