<?xml version="1.0" encoding="UTF-8"?>
<svg width="60px" height="60px" viewBox="0 0 60 60" version="1.1" xmlns="http://www.w3.org/2000/svg" xmlns:xlink="http://www.w3.org/1999/xlink">
    <title>icon-todo-default</title>
    <defs>
        <circle id="path-1" cx="30" cy="30" r="30"></circle>
    </defs>
    <g id="页面-2" stroke="none" stroke-width="1" fill="none" fill-rule="evenodd">
        <g id="Index-待办事项-重要-缺省页" transform="translate(-806.000000, -499.000000)">
            <g id="icon-todo-default" transform="translate(806.000000, 499.000000)">
                <g id="形状结合">
                    <mask id="mask-2" fill="white">
                        <use xlink:href="#path-1"></use>
                    </mask>
                    <use id="蒙版" fill="#1492FF" opacity="0.2" xlink:href="#path-1"></use>
                    <path d="M46,18 C47.1045695,18 48,18.8954305 48,20 L48,58 C48,59.1045695 47.1045695,60 46,60 L14,60 C12.8954305,60 12,59.1045695 12,58 L12,20 C12,18.8954305 12.8954305,18 14,18 L46,18 Z M33,50 L25,50 C24.4477153,50 24,50.4477153 24,51 C24,51.5522847 24.4477153,52 25,52 L25,52 L33,52 C33.5522847,52 34,51.5522847 34,51 C34,50.4477153 33.5522847,50 33,50 L33,50 Z M36,46 L25,46 C24.4477153,46 24,46.4477153 24,47 C24,47.5522847 24.4477153,48 25,48 L25,48 L36,48 C36.5522847,48 37,47.5522847 37,47 C37,46.4477153 36.5522847,46 36,46 L36,46 Z M33,40 L25,40 C24.4477153,40 24,40.4477153 24,41 C24,41.5522847 24.4477153,42 25,42 L25,42 L33,42 C33.5522847,42 34,41.5522847 34,41 C34,40.4477153 33.5522847,40 33,40 L33,40 Z M36,36 L25,36 C24.4477153,36 24,36.4477153 24,37 C24,37.5522847 24.4477153,38 25,38 L25,38 L36,38 C36.5522847,38 37,37.5522847 37,37 C37,36.4477153 36.5522847,36 36,36 L36,36 Z M33,30 L25,30 C24.4477153,30 24,30.4477153 24,31 C24,31.5522847 24.4477153,32 25,32 L25,32 L33,32 C33.5522847,32 34,31.5522847 34,31 C34,30.4477153 33.5522847,30 33,30 L33,30 Z M36,26 L25,26 C24.4477153,26 24,26.4477153 24,27 C24,27.5522847 24.4477153,28 25,28 L25,28 L36,28 C36.5522847,28 37,27.5522847 37,27 C37,26.4477153 36.5522847,26 36,26 L36,26 Z" fill="#FFFFFF" mask="url(#mask-2)"></path>
                </g>
                <rect id="矩形" stroke="#D0E9FF" x="16.5" y="46.5" width="5" height="5" rx="2"></rect>
                <rect id="矩形" stroke="#D0E9FF" x="16.5" y="36.5" width="5" height="5" rx="2"></rect>
                <rect id="矩形" stroke="#D0E9FF" x="16.5" y="26.5" width="5" height="5" rx="2"></rect>
                <path d="M41.5346589,31.2446443 L40.8244295,31.618034 C40.5040056,31.7864908 40.1076896,31.6632971 39.9392328,31.3428733 C39.8721524,31.2152788 39.8490046,31.0691295 39.873373,30.927051 L40.0090147,30.1361989 C40.0646527,29.8118049 39.9571042,29.4808047 39.7214181,29.2510675 L39.1468305,28.690983 C38.8876021,28.4382978 38.8822978,28.0233099 39.134983,27.7640815 C39.2356036,27.6608555 39.3674468,27.593678 39.5101017,27.572949 L40.3041623,27.4575653 C40.6298725,27.4102368 40.911438,27.2056674 41.0571001,26.910524 L41.4122147,26.190983 C41.5724267,25.8663582 41.9654645,25.7330752 42.2900894,25.8932871 C42.4193567,25.9570843 42.523988,26.0617157 42.5877853,26.190983 L42.9428999,26.910524 C43.088562,27.2056674 43.3701275,27.4102368 43.6958377,27.4575653 L44.4898983,27.572949 C44.8481431,27.625005 45.0963581,27.9576195 45.0443021,28.3158643 C45.0235731,28.4585192 44.9563956,28.5903624 44.8531695,28.690983 L44.2785819,29.2510675 C44.0428958,29.4808047 43.9353473,29.8118049 43.9909853,30.1361989 L44.126627,30.927051 C44.1878225,31.2838482 43.94819,31.6226983 43.5913928,31.6838938 C43.4493143,31.7082621 43.303165,31.6851144 43.1755705,31.618034 L42.4653411,31.2446443 C42.1740171,31.0914862 41.8259829,31.0914862 41.5346589,31.2446443 Z" id="星形" fill="#1492FF"></path>
                <path d="M41.5346589,41.2446443 L40.8244295,41.618034 C40.5040056,41.7864908 40.1076896,41.6632971 39.9392328,41.3428733 C39.8721524,41.2152788 39.8490046,41.0691295 39.873373,40.927051 L40.0090147,40.1361989 C40.0646527,39.8118049 39.9571042,39.4808047 39.7214181,39.2510675 L39.1468305,38.690983 C38.8876021,38.4382978 38.8822978,38.0233099 39.134983,37.7640815 C39.2356036,37.6608555 39.3674468,37.593678 39.5101017,37.572949 L40.3041623,37.4575653 C40.6298725,37.4102368 40.911438,37.2056674 41.0571001,36.910524 L41.4122147,36.190983 C41.5724267,35.8663582 41.9654645,35.7330752 42.2900894,35.8932871 C42.4193567,35.9570843 42.523988,36.0617157 42.5877853,36.190983 L42.9428999,36.910524 C43.088562,37.2056674 43.3701275,37.4102368 43.6958377,37.4575653 L44.4898983,37.572949 C44.8481431,37.625005 45.0963581,37.9576195 45.0443021,38.3158643 C45.0235731,38.4585192 44.9563956,38.5903624 44.8531695,38.690983 L44.2785819,39.2510675 C44.0428958,39.4808047 43.9353473,39.8118049 43.9909853,40.1361989 L44.126627,40.927051 C44.1878225,41.2838482 43.94819,41.6226983 43.5913928,41.6838938 C43.4493143,41.7082621 43.303165,41.6851144 43.1755705,41.618034 L42.4653411,41.2446443 C42.1740171,41.0914862 41.8259829,41.0914862 41.5346589,41.2446443 Z" id="星形" fill="#1492FF"></path>
                <path d="M41.5346589,51.2446443 L40.8244295,51.618034 C40.5040056,51.7864908 40.1076896,51.6632971 39.9392328,51.3428733 C39.8721524,51.2152788 39.8490046,51.0691295 39.873373,50.927051 L40.0090147,50.1361989 C40.0646527,49.8118049 39.9571042,49.4808047 39.7214181,49.2510675 L39.1468305,48.690983 C38.8876021,48.4382978 38.8822978,48.0233099 39.134983,47.7640815 C39.2356036,47.6608555 39.3674468,47.593678 39.5101017,47.572949 L40.3041623,47.4575653 C40.6298725,47.4102368 40.911438,47.2056674 41.0571001,46.910524 L41.4122147,46.190983 C41.5724267,45.8663582 41.9654645,45.7330752 42.2900894,45.8932871 C42.4193567,45.9570843 42.523988,46.0617157 42.5877853,46.190983 L42.9428999,46.910524 C43.088562,47.2056674 43.3701275,47.4102368 43.6958377,47.4575653 L44.4898983,47.572949 C44.8481431,47.625005 45.0963581,47.9576195 45.0443021,48.3158643 C45.0235731,48.4585192 44.9563956,48.5903624 44.8531695,48.690983 L44.2785819,49.2510675 C44.0428958,49.4808047 43.9353473,49.8118049 43.9909853,50.1361989 L44.126627,50.927051 C44.1878225,51.2838482 43.94819,51.6226983 43.5913928,51.6838938 C43.4493143,51.7082621 43.303165,51.6851144 43.1755705,51.618034 L42.4653411,51.2446443 C42.1740171,51.0914862 41.8259829,51.0914862 41.5346589,51.2446443 Z" id="星形" fill="#1492FF"></path>
            </g>
        </g>
    </g>
</svg>