<?xml version="1.0" encoding="UTF-8"?>
<svg width="18px" height="18px" viewBox="0 0 18 18" version="1.1" xmlns="http://www.w3.org/2000/svg" xmlns:xlink="http://www.w3.org/1999/xlink">
    <!-- Generator: Sketch 63.1 (92452) - https://sketch.com -->
    <title>icon-todo-del</title>
    <desc>Created with Sketch.</desc>
    <g id="icon-todo-del" stroke="none" stroke-width="1" fill="none" fill-rule="evenodd">
        <path d="M6.99805359,3.00276253 L6.99805359,2.18 C6.99805359,2.08058875 7.08033639,2 7.18183738,2 L10.8142702,2 C10.9157712,2 10.998054,2.08058875 10.998054,2.18 L10.998054,3.00276253 L15.8084712,3.00276253 C15.9099722,3.00276253 15.992255,3.08335127 15.992255,3.18276253 L15.992255,3.82222778 C15.992255,3.92163904 15.9099722,4.00222778 15.8084712,4.00222778 L14.0230077,4.00222778 L14.0230077,15.8281797 C14.0231976,15.9233583 13.9476999,16.0022312 13.8507104,16.0081797 L4.18453908,16.0081797 C4.0830381,16.0081797 4.0007553,15.9275909 4.0007553,15.8281797 L4.0007553,4.00222778 L2.18378378,4.00222778 C2.13504129,4.00222778 2.08829517,3.98326355 2.05382902,3.949507 C2.01936288,3.91575046 2,3.86996675 2,3.82222778 L2,3.18276253 C2,3.08335127 2.0822828,3.00276253 2.18378378,3.00276253 L6.99805359,3.00276253 Z M3.5820538,3.99334608 L5.00076987,3.99334608 L5.00076987,15.0081797 L12.992255,15.0081797 L12.992255,3.99334608 L3.5820538,3.99334608 Z M7.86797235,5.99236978 C7.94111213,5.99818079 7.99818045,6.0799385 7.99805317,6.17872788 L7.99805317,12.8060117 C7.99818045,12.9048011 7.94111213,12.9865588 7.86797235,12.9923698 L7.12813526,12.9923698 C7.05499548,12.9865588 6.99792715,12.9048011 6.99805317,12.8060117 L6.99805317,6.17872788 C6.99792715,6.0799385 7.05499548,5.99818079 7.12813526,5.99236978 L7.86797235,5.99236978 Z M10.8679723,5.99236978 C10.9411121,5.99818079 10.9981805,6.0799385 10.998053,6.17872788 L10.998053,12.8060117 C10.9981805,12.9048011 10.9411121,12.9865588 10.8679723,12.9923698 L10.1281353,12.9923698 C10.0549955,12.9865588 9.99792715,12.9048011 9.99805297,12.8060117 L9.99805297,6.17872788 C9.99792715,6.0799385 10.0549955,5.99818079 10.1281353,5.99236978 L10.8679723,5.99236978 Z" id="形状" fill="#333333" fill-rule="nonzero"></path>
    </g>
</svg>