<?xml version="1.0" encoding="UTF-8"?>
<svg width="18px" height="18px" viewBox="0 0 18 18" version="1.1" xmlns="http://www.w3.org/2000/svg" xmlns:xlink="http://www.w3.org/1999/xlink">
    <!-- Generator: Sketch 56.2 (81672) - https://sketch.com -->
    <title>icon-login-preview</title>
    <desc>Created with Sketch.</desc>
    <g id="icon-login-preview" stroke="none" stroke-width="1" fill="none" fill-rule="evenodd">
        <g id="icon_yulan" transform="translate(1.000000, 4.000000)" fill="#333333" fill-rule="nonzero">
            <path d="M7.97574627,10.9452736 C5.0409204,10.9452736 2.41206468,9.19253731 0.100124378,5.75024876 C-0.0127506145,5.58238444 -0.0127506145,5.3628892 0.100124378,5.19502488 C2.41206468,1.75223881 5.04042289,0 7.97574627,0 C10.9105721,0 13.5394279,1.75273632 15.8513682,5.19502488 C15.9642432,5.3628892 15.9642432,5.58238444 15.8513682,5.75024876 C13.5394279,9.19303483 10.9110697,10.9452736 7.97574627,10.9452736 Z M7.97574627,9.95024876 C10.4608209,9.95024876 12.744403,8.47661692 14.8359453,5.47263682 C12.744403,2.46865672 10.4608209,0.995024876 7.97574627,0.995024876 C5.49067164,0.995024876 3.20708955,2.46865672 1.11554726,5.47263682 C3.20708955,8.47661692 5.49067164,9.95024876 7.97574627,9.95024876 Z M7.97574627,8.95522388 C6.05236654,8.95522388 4.4931592,7.39601654 4.4931592,5.47263682 C4.4931592,3.54925709 6.05236654,1.99004975 7.97574627,1.99004975 C9.89912599,1.99004975 11.4583333,3.54925709 11.4583333,5.47263682 C11.4583333,7.39601654 9.89912599,8.95522388 7.97574627,8.95522388 Z M7.97574627,7.960199 C9.34958893,7.960199 10.4633085,6.84647948 10.4633085,5.47263682 C10.4633085,4.09879415 9.34958893,2.98507463 7.97574627,2.98507463 C6.60190361,2.98507463 5.48818408,4.09879415 5.48818408,5.47263682 C5.48818408,6.84647948 6.60190361,7.960199 7.97574627,7.960199 Z" id="形状"></path>
        </g>
    </g>
</svg>