<?xml version="1.0" encoding="UTF-8"?>
<svg width="20px" height="20px" viewBox="0 0 20 20" version="1.1" xmlns="http://www.w3.org/2000/svg" xmlns:xlink="http://www.w3.org/1999/xlink">
    <!-- Generator: Sketch 53.1 (72631) - https://sketchapp.com -->
    <title>icon-set</title>
    <desc>Created with Sketch.</desc>
    <g id="icon-set" stroke="none" stroke-width="1" fill="none" fill-rule="evenodd">
        <g id="Icon/interface/26.setting/outline" transform="translate(1.000000, 1.000000)" fill="#000000" fill-rule="nonzero">
            <path d="M17.0625,11.2207031 L15.7832031,10.1269531 C15.84375,9.75585937 15.875,9.37695312 15.875,8.99804687 C15.875,8.61914062 15.84375,8.24023437 15.7832031,7.86914062 L17.0625,6.77539062 C17.2597656,6.60742187 17.3320313,6.33398437 17.2441406,6.08789062 L17.2265625,6.03710937 C16.8730469,5.05078125 16.3496094,4.14453125 15.6699219,3.34375 L15.6347656,3.30273437 C15.4667969,3.10546875 15.1953125,3.03125 14.9492188,3.1171875 L13.3613281,3.68164062 C12.7753906,3.20117187 12.1210938,2.82226562 11.4140625,2.55664062 L11.1074219,0.896484375 C11.0605469,0.640625 10.859375,0.44140625 10.6035156,0.39453125 L10.5507813,0.384765625 C9.53320313,0.201171875 8.46289063,0.201171875 7.4453125,0.384765625 L7.39257813,0.39453125 C7.13671875,0.44140625 6.93554688,0.640625 6.88867188,0.896484375 L6.58007813,2.56445312 C5.87890625,2.83007812 5.22851563,3.20703125 4.64648438,3.68554687 L3.046875,3.1171875 C2.80273438,3.03125 2.52929688,3.10351562 2.36132813,3.30273437 L2.32617188,3.34375 C1.64648438,4.14648437 1.12304688,5.05273437 0.76953125,6.03710937 L0.751953125,6.08789062 C0.6640625,6.33203125 0.736328125,6.60546875 0.93359375,6.77539062 L2.22851563,7.88085937 C2.16796875,8.24804688 2.13867188,8.62304687 2.13867188,8.99609375 C2.13867188,9.37109375 2.16796875,9.74609375 2.22851563,10.1113281 L0.93359375,11.2167969 C0.736328125,11.3847656 0.6640625,11.6582031 0.751953125,11.9042969 L0.76953125,11.9550781 C1.12304688,12.9394531 1.64648438,13.8476562 2.32617188,14.6484375 L2.36132813,14.6894531 C2.52929688,14.8867187 2.80078125,14.9609375 3.046875,14.875 L4.64648438,14.3066406 C5.22851563,14.7851562 5.87890625,15.1640625 6.58007813,15.4277344 L6.88867188,17.0957031 C6.93554688,17.3515625 7.13671875,17.5507812 7.39257813,17.5976562 L7.4453125,17.6074219 C7.95507813,17.6992188 8.4765625,17.7460938 8.99804688,17.7460938 C9.51953125,17.7460938 10.0429688,17.6992188 10.5507813,17.6074219 L10.6035156,17.5976562 C10.859375,17.5507812 11.0605469,17.3515625 11.1074219,17.0957031 L11.4140625,15.4355469 C12.1210938,15.1699219 12.7753906,14.7929687 13.3613281,14.3105469 L14.9492188,14.875 C15.1933594,14.9609375 15.4667969,14.8886719 15.6347656,14.6894531 L15.6699219,14.6484375 C16.3496094,13.8457031 16.8730469,12.9394531 17.2265625,11.9550781 L17.2441406,11.9042969 C17.3320313,11.6640625 17.2597656,11.390625 17.0625,11.2207031 L17.0625,11.2207031 Z M14.3964844,8.09960937 C14.4453125,8.39453125 14.4707031,8.69726562 14.4707031,9 C14.4707031,9.30273438 14.4453125,9.60546875 14.3964844,9.90039062 L14.2675781,10.6835938 L15.7265625,11.9316406 C15.5058594,12.4414062 15.2265625,12.921875 14.8945313,13.3691406 L13.0820313,12.7265625 L12.46875,13.2304687 C12.0019531,13.6132812 11.4824219,13.9140625 10.9199219,14.125 L10.1757813,14.4042969 L9.82617188,16.2988281 C9.27734375,16.3613281 8.71679688,16.3613281 8.16601563,16.2988281 L7.81640625,14.4003906 L7.078125,14.1171875 C6.52148438,13.90625 6.00390625,13.6054687 5.54101563,13.2246094 L4.92773438,12.71875 L3.10351563,13.3671875 C2.77148438,12.9199219 2.49414063,12.4375 2.27148438,11.9296875 L3.74609375,10.6699219 L3.61914063,9.88867187 C3.57226563,9.59765625 3.546875,9.296875 3.546875,9 C3.546875,8.70117187 3.5703125,8.40234375 3.61914063,8.11132812 L3.74609375,7.33007812 L2.27148438,6.0703125 C2.4921875,5.56054687 2.77148438,5.08007812 3.10351563,4.6328125 L4.92773438,5.28125 L5.54101563,4.77539062 C6.00390625,4.39453125 6.52148438,4.09375 7.078125,3.8828125 L7.81835938,3.60351562 L8.16796875,1.70507812 C8.71679688,1.64257812 9.27734375,1.64257812 9.828125,1.70507812 L10.1777344,3.59960937 L10.921875,3.87890625 C11.4824219,4.08984375 12.0039063,4.390625 12.4707031,4.7734375 L13.0839844,5.27734375 L14.8964844,4.63476562 C15.2285156,5.08203125 15.5058594,5.56445312 15.7285156,6.07226562 L14.2695313,7.3203125 L14.3964844,8.09960937 Z M9,5.3671875 C7.1015625,5.3671875 5.5625,6.90625 5.5625,8.8046875 C5.5625,10.703125 7.1015625,12.2421875 9,12.2421875 C10.8984375,12.2421875 12.4375,10.703125 12.4375,8.8046875 C12.4375,6.90625 10.8984375,5.3671875 9,5.3671875 Z M10.546875,10.3515625 C10.1328125,10.7636719 9.58398438,10.9921875 9,10.9921875 C8.41601563,10.9921875 7.8671875,10.7636719 7.453125,10.3515625 C7.04101563,9.9375 6.8125,9.38867188 6.8125,8.8046875 C6.8125,8.22070312 7.04101563,7.671875 7.453125,7.2578125 C7.8671875,6.84375 8.41601563,6.6171875 9,6.6171875 C9.58398438,6.6171875 10.1328125,6.84375 10.546875,7.2578125 C10.9589844,7.671875 11.1875,8.22070312 11.1875,8.8046875 C11.1875,9.38867188 10.9589844,9.9375 10.546875,10.3515625 Z" id="fill"></path>
        </g>
    </g>
</svg>