<?xml version="1.0" encoding="UTF-8"?>
<svg width="18px" height="18px" viewBox="0 0 18 18" version="1.1" xmlns="http://www.w3.org/2000/svg" xmlns:xlink="http://www.w3.org/1999/xlink">
    <!-- Generator: Sketch 56.2 (81672) - https://sketch.com -->
    <title>icon-login-ciphertext</title>
    <desc>Created with Sketch.</desc>
    <g id="icon-login-ciphertext" stroke="none" stroke-width="1" fill="none" fill-rule="evenodd">
        <g id="miwen" transform="translate(1.000000, 3.000000)" fill="#333333" fill-rule="nonzero">
            <path d="M8.74367662,2.84042289 C9.01157594,2.90197104 9.17885661,3.16904098 9.11730846,3.4369403 C9.05576031,3.70483962 8.78869036,3.87212029 8.52079104,3.81057214 C7.62107221,3.60207285 6.67989822,3.90920161 6.07633787,4.60825871 C5.47277752,5.30731581 5.3061924,6.28321845 5.64367662,7.14291045 C5.71256862,7.3092617 5.68620474,7.49985417 5.57474227,7.64125772 C5.4632798,7.78266127 5.28411474,7.85280699 5.10627454,7.82466963 C4.92843434,7.79653227 4.77967461,7.67450323 4.71730846,7.50559701 C4.24517874,6.30235351 4.47829279,4.93659774 5.32281525,3.95808703 C6.16733772,2.97957632 7.48433504,2.54928683 8.74367662,2.84042289 L8.74367662,2.84042289 Z M7.18497015,9.62997512 C6.91945415,9.56684908 6.75435843,9.30160746 6.81494874,9.03550136 C6.87553905,8.76939526 7.13919369,8.60177681 7.40586567,8.65982587 C8.27641933,8.85944785 9.18717336,8.57703903 9.79206297,7.91990802 C10.3969526,7.26277701 10.6031228,6.33179823 10.3322338,5.48072139 C10.2735155,5.309914 10.3119819,5.12069963 10.4327317,4.98637729 C10.5534815,4.85205494 10.7375454,4.79372621 10.9136195,4.83398682 C11.0896936,4.87424743 11.2301174,5.00677258 11.2804925,5.18022388 C11.6591261,6.37141942 11.3703566,7.67417071 10.5238357,8.59379699 C9.67731479,9.51342328 8.40288491,9.90886886 7.18447264,9.62997512 L7.18497015,9.62997512 Z M3.318801,8.78569652 C3.45210905,8.90327422 3.51256382,9.0830395 3.47739256,9.25727652 C3.44222131,9.43151354 3.31676739,9.57375154 3.14828809,9.63041085 C2.97980878,9.68707016 2.7939001,9.64954288 2.66059204,9.53196517 C2.05312935,8.99564677 1.20487065,8.00012438 0.100393035,6.53395522 C-0.0272503093,6.36454171 -0.0334426067,6.13282994 0.0849701493,5.9568408 C2.39691045,2.51405473 5.02526866,0.76181592 7.96059204,0.76181592 C8.77999502,0.76181592 9.579,0.899129353 10.3551194,1.17375622 C10.6142261,1.26539152 10.7499885,1.54972412 10.6583532,1.80883085 C10.5667179,2.06793757 10.2823853,2.20369998 10.0232786,2.11206468 C9.3611281,1.87642328 8.66342192,1.75626838 7.96059204,1.7568408 C5.47949751,1.7568408 3.19939801,3.22549751 1.1108408,6.21952736 C2.07203483,7.47972637 2.81233333,8.33843284 3.31929851,8.78569652 L3.318801,8.78569652 Z M12.6441741,3.7210199 C12.438922,3.53816144 12.4207684,3.22353568 12.6036269,3.01828358 C12.7864853,2.81303149 13.1011111,2.79487786 13.3063632,2.97773632 C13.9028806,3.51007463 14.7362139,4.49166667 15.820791,5.93544776 C15.9481995,6.10475741 15.9543895,6.33618635 15.8362139,6.51206468 C13.5242736,9.95485075 10.8959154,11.7070896 7.96059204,11.7070896 C7.37253234,11.7070896 6.79541791,11.6364428 6.22924876,11.4946517 C5.9685912,11.4231725 5.81268055,11.1566651 5.87810601,10.8944225 C5.94353147,10.63218 6.2063578,10.470141 6.47004478,10.5294776 C6.95760697,10.6513682 7.45362687,10.7120647 7.96059204,10.7120647 C10.4416866,10.7120647 12.7217861,9.24340796 14.8103433,6.24937811 C13.8675572,5.01007463 13.1416866,4.16430348 12.6441741,3.72052239 L12.6441741,3.7210199 Z M12.8098458,0.185199005 C12.9909182,-0.0217016998 13.3054326,-0.0426396269 13.5123333,0.138432836 C13.719234,0.319505299 13.740172,0.634019693 13.5590995,0.840920398 L3.11133831,12.7812189 C2.93026585,12.9881196 2.61575145,13.0090575 2.40885075,12.8279851 C2.20195004,12.6469126 2.18101211,12.3323982 2.36208458,12.1254975 L12.8098458,0.185199005 Z" id="形状"></path>
        </g>
    </g>
</svg>