<?xml version="1.0" encoding="UTF-8"?>
<svg width="20px" height="20px" viewBox="0 0 20 20" version="1.1" xmlns="http://www.w3.org/2000/svg" xmlns:xlink="http://www.w3.org/1999/xlink">
    <!-- Generator: Sketch 53.1 (72631) - https://sketchapp.com -->
    <title>icon-password</title>
    <desc>Created with Sketch.</desc>
    <g id="icon-password" stroke="none" stroke-width="1" fill="none" fill-rule="evenodd">
        <g id="Icon/interface/20.lock/outline" transform="translate(3.000000, 2.000000)" fill="#000000" fill-rule="nonzero">
            <path d="M13.25,7.0625 L11.921875,7.0625 L11.921875,2.6875 C11.921875,1.30664063 10.8027344,0.1875 9.421875,0.1875 L4.578125,0.1875 C3.19726562,0.1875 2.078125,1.30664063 2.078125,2.6875 L2.078125,7.0625 L0.75,7.0625 C0.404296875,7.0625 0.125,7.34179688 0.125,7.6875 L0.125,15.1875 C0.125,15.5332031 0.404296875,15.8125 0.75,15.8125 L13.25,15.8125 C13.5957031,15.8125 13.875,15.5332031 13.875,15.1875 L13.875,7.6875 C13.875,7.34179688 13.5957031,7.0625 13.25,7.0625 Z M3.484375,2.6875 C3.484375,2.08398438 3.97460938,1.59375 4.578125,1.59375 L9.421875,1.59375 C10.0253906,1.59375 10.515625,2.08398438 10.515625,2.6875 L10.515625,7.0625 L3.484375,7.0625 L3.484375,2.6875 Z M12.46875,14.40625 L1.53125,14.40625 L1.53125,8.46875 L12.46875,8.46875 L12.46875,14.40625 Z M6.453125,11.6914062 L6.453125,12.7265625 C6.453125,12.8125 6.5234375,12.8828125 6.609375,12.8828125 L7.390625,12.8828125 C7.4765625,12.8828125 7.546875,12.8125 7.546875,12.7265625 L7.546875,11.6914062 C7.78320312,11.5214844 7.9375,11.2441406 7.9375,10.9296875 C7.9375,10.4121094 7.51757812,9.9921875 7,9.9921875 C6.48242188,9.9921875 6.0625,10.4121094 6.0625,10.9296875 C6.0625,11.2441406 6.21679688,11.5214844 6.453125,11.6914062 Z" id="fill"></path>
        </g>
    </g>
</svg>