<?xml version="1.0" encoding="UTF-8"?>
<svg width="18px" height="18px" viewBox="0 0 18 18" version="1.1" xmlns="http://www.w3.org/2000/svg" xmlns:xlink="http://www.w3.org/1999/xlink">
    <!-- Generator: Sketch 56.2 (81672) - https://sketch.com -->
    <title>icon-search</title>
    <desc>Created with Sketch.</desc>
    <g id="icon-search" stroke="none" stroke-width="1" fill="none" fill-rule="evenodd">
        <g id="icon-搜索" transform="translate(1.000000, 1.000000)" fill="#333333">
            <path d="M6.67183729,12.2036791 C3.75694463,12.2036791 1.39427797,9.79057175 1.39427797,6.81402938 C1.39427797,3.83739661 3.75712542,1.42456045 6.67183729,1.42456045 C9.58582599,1.42456045 11.9484927,3.83739661 11.9484927,6.81402938 C11.9484927,9.79057175 9.58582599,12.2036791 6.67183729,12.2036791 L6.67183729,12.2036791 Z M12.0850802,10.7859164 C12.8737808,9.66727232 13.3433853,8.29796158 13.3433853,6.81402938 C13.3433853,3.05068475 10.3562667,1.8079096e-05 6.67183729,1.8079096e-05 C2.98713672,1.8079096e-05 1.80790965e-05,3.05095593 1.80790965e-05,6.81411977 C1.80790965e-05,10.577374 2.98713672,13.6281311 6.67183729,13.6281311 C8.19256045,13.6281311 9.95653785,12.7681989 11.0790689,11.8926282 L14.8240633,15.9164023 L15.9164023,14.6868429 L12.0850802,10.7859164 Z" id="Fill-1"></path>
        </g>
    </g>
</svg>