<?xml version="1.0" encoding="UTF-8"?>
<svg width="20px" height="20px" viewBox="0 0 20 20" version="1.1" xmlns="http://www.w3.org/2000/svg" xmlns:xlink="http://www.w3.org/1999/xlink">
    <!-- Generator: Sketch 53.1 (72631) - https://sketchapp.com -->
    <title>icon-email</title>
    <desc>Created with Sketch.</desc>
    <g id="icon-email" stroke="none" stroke-width="1" fill="none" fill-rule="evenodd">
        <g id="Icon/interface/2.mail/outline" transform="translate(1.000000, 3.000000)" fill="#000000" fill-rule="nonzero">
            <path d="M17.125,0.125 L0.875,0.125 C0.529296875,0.125 0.25,0.404296875 0.25,0.75 L0.25,13.25 C0.25,13.5957031 0.529296875,13.875 0.875,13.875 L17.125,13.875 C17.4707031,13.875 17.75,13.5957031 17.75,13.25 L17.75,0.75 C17.75,0.404296875 17.4707031,0.125 17.125,0.125 Z M16.34375,2.2890625 L16.34375,12.46875 L1.65625,12.46875 L1.65625,2.2890625 L1.1171875,1.86914062 L1.88476562,0.8828125 L2.72070312,1.53320313 L15.28125,1.53320313 L16.1171875,0.8828125 L16.8847656,1.86914062 L16.34375,2.2890625 L16.34375,2.2890625 Z M15.28125,1.53125 L9,6.4140625 L2.71875,1.53125 L1.8828125,0.880859375 L1.11523438,1.8671875 L1.65429688,2.28710938 L8.32617188,7.47460937 C8.72070312,7.78125 9.2734375,7.78125 9.66796875,7.47460937 L16.34375,2.2890625 L16.8828125,1.86914063 L16.1152344,0.8828125 L15.28125,1.53125 Z" id="fill"></path>
        </g>
    </g>
</svg>