<?xml version="1.0" encoding="UTF-8"?>
<svg width="40px" height="40px" viewBox="0 0 40 40" version="1.1" xmlns="http://www.w3.org/2000/svg" xmlns:xlink="http://www.w3.org/1999/xlink">
    <!-- Generator: Sketch 53.1 (72631) - https://sketchapp.com -->
    <title>icon-scroll</title>
    <desc>Created with Sketch.</desc>
    <g id="icon-scroll" stroke="none" stroke-width="1" fill="none" fill-rule="evenodd" opacity="0.8959124">
        <g id="Combined-Shape-2" transform="translate(8.000000, 2.000000)" fill="#000000" fill-rule="nonzero">
            <path d="M12,0 C18.627417,-1.21743675e-15 24,5.372583 24,12 L24,24 C24,30.627417 18.627417,36 12,36 C5.372583,36 8.11624501e-16,30.627417 0,24 L0,12 C-8.11624501e-16,5.372583 5.372583,1.21743675e-15 12,0 Z M12,2 C6.4771525,2 2,6.4771525 2,12 L2,24 C2,29.5228475 6.4771525,34 12,34 C17.5228475,34 22,29.5228475 22,24 L22,12 C22,6.4771525 17.5228475,2 12,2 Z M11,9 L13,9 L13,15 L11,15 L11,9 Z" id="Combined-Shape"></path>
        </g>
    </g>
</svg>