<?xml version="1.0" encoding="UTF-8"?>
<svg width="18px" height="18px" viewBox="0 0 18 18" version="1.1" xmlns="http://www.w3.org/2000/svg" xmlns:xlink="http://www.w3.org/1999/xlink">
    <!-- Generator: Sketch 56.2 (81672) - https://sketch.com -->
    <title>icon-login-captcha</title>
    <desc>Created with Sketch.</desc>
    <g id="icon-login-captcha" stroke="none" stroke-width="1" fill="none" fill-rule="evenodd">
        <g id="yanzhengma" transform="translate(2.000000, 1.000000)" fill="#333333" fill-rule="nonzero">
            <path d="M13.9985205,4.77570777 C13.9985205,5.79745397 13.9994297,6.81921969 13.998028,7.8409659 C13.9975166,8.21091423 13.9476991,8.57547352 13.8886759,8.94018901 C13.8008229,9.48307406 13.6452902,10.004813 13.4435201,10.5113417 C13.2183946,11.0764858 12.9210811,11.6013684 12.5763179,12.0992668 C12.2661617,12.5471997 11.9184815,12.9611388 11.5249048,13.3299546 C11.2240491,13.6118823 10.906051,13.87653 10.5800972,14.1273341 C9.96876334,14.5976822 9.27544857,14.9214333 8.59573416,15.2680878 C8.34585142,15.3955303 8.0957982,15.5227189 7.84409701,15.6462954 C7.61806223,15.7572779 7.39289877,15.8713845 7.16102986,15.9679964 C7.03140982,16.0220037 6.89042458,16.0042551 6.76239565,15.9402507 C6.43615773,15.7771743 6.11188979,15.6099585 5.78593601,15.4462769 C5.35438062,15.2295446 4.91776772,15.0230242 4.49104254,14.7966658 C4.01474617,14.5440068 3.5599679,14.2523359 3.14216439,13.9051347 C2.90446135,13.707596 2.67545267,13.4985372 2.44801618,13.2883655 C2.02606437,12.8985012 1.6719249,12.4476395 1.34551651,11.9719415 C1.07273289,11.5743842 0.847228486,11.1487689 0.650610622,10.7080995 C0.414081986,10.1779645 0.242297065,9.62303232 0.136562855,9.04986335 C0.068049663,8.67852873 0.0161864976,8.30336712 0.0179481125,7.92254314 C0.0190088613,7.69280694 0.00141175987,7.46301217 0.00124127743,7.23325644 C-0.00023620005,5.35244992 -0.000690801386,3.4716434 0.00154435116,1.59083688 C0.00188531604,1.29943936 0.126599387,1.12152365 0.388074621,1.03668567 C0.878710077,0.87747531 1.37067148,0.718772615 1.8699066,0.592696919 C2.33120092,0.476208203 2.80173892,0.396915443 3.2700986,0.312311752 C3.58114504,0.256137091 3.89501384,0.215368 4.20854167,0.175340864 C4.46158775,0.143026274 4.71567561,0.117760372 4.96991502,0.0972782008 C5.27203979,0.0729495065 5.57469492,0.054673716 5.877369,0.0384285541 C6.08110905,0.0274943226 6.28522796,0.0238625918 6.48921425,0.0182587912 C6.75313301,0.0110148493 7.01708966,0.000178234765 7.28102738,1.22676175e-13 C7.52602309,-0.000173213204 7.77113247,0.00886706503 8.01599559,0.0189617063 C8.23782525,0.0281191402 8.45980644,0.0389947938 8.68093524,0.0584421221 C8.99391375,0.0859729826 9.30645662,0.119693403 9.6186964,0.155151582 C9.93957373,0.191566507 10.2616823,0.222045703 10.5800214,0.275486802 C10.9699044,0.340916515 11.3583478,0.418783925 11.743931,0.507331755 C12.1529265,0.601249074 12.5594027,0.708053175 12.9639468,0.820753947 C13.1987138,0.88616414 13.4276089,0.973989517 13.6590042,1.05218886 C13.8677449,1.12273423 14.0006041,1.32048777 14,1.53475985 C13.9968346,2.61506281 13.9985205,3.6953853 13.9985205,4.77570777 Z M12.9980501,5.01357768 L12.9980501,3.22208251 C12.9980501,2.79648831 12.9974917,2.37087431 12.998724,1.94528013 C12.9988781,1.8907716 12.9924275,1.85738933 12.9291352,1.84024279 C12.6869414,1.77466624 12.4494651,1.68903262 12.2054997,1.63238572 C11.7130441,1.51802274 11.2189902,1.40946109 10.7227412,1.3142642 C10.3456251,1.24193595 9.96473493,1.1888926 9.58428764,1.13691843 C9.32426334,1.10137799 9.06250607,1.076371 8.80076805,1.05754151 C8.44234888,1.03176231 8.08323654,0.999607631 7.72443227,1 C7.04670158,1.00077581 6.36899014,1.02213966 5.69129795,1.03649443 C5.53846821,1.03972178 5.38571549,1.04817625 5.23303979,1.05627432 C5.14756527,1.06080844 5.06201372,1.06700575 4.97698209,1.07690559 C4.70733011,1.10832769 4.4377359,1.14048237 4.16841126,1.17493382 C3.92134581,1.20655392 3.67329835,1.23324389 3.42819694,1.2770606 C3.1099637,1.3339451 2.79194227,1.39583891 2.47792597,1.47319626 C2.01508503,1.58720284 1.55622994,1.71821734 1.09477538,1.83826284 C1.01860121,1.85808233 1,1.89487012 1,1.97359368 C1.00248446,3.86404768 0.999615426,5.75452145 1.00448704,7.64497543 C1.00519948,7.92153741 1.03573848,8.19841619 1.06044308,8.47438418 C1.0962773,8.87459518 1.19207268,9.26213439 1.30822098,9.64498107 C1.45015219,10.112808 1.64738477,10.5550735 1.88145287,10.9810835 C2.13672109,11.4457227 2.44249613,11.8738711 2.79157644,12.2663998 C3.08606782,12.5975693 3.4059185,12.9035734 3.75137882,13.1805116 C4.1630359,13.5108012 4.60450239,13.7998027 5.06973513,14.04356 C5.46231329,14.2492391 5.86243955,14.4396328 6.25831037,14.6387385 C6.48486887,14.7527055 6.70884713,14.8721371 6.93596404,14.9848766 C6.96756206,15.0005579 7.01618185,15.0057454 7.04727924,14.992242 C7.16885753,14.9394561 7.28673882,14.8775821 7.40565988,14.8184206 C7.67207697,14.6859013 7.93932201,14.5551046 8.20442973,14.4198332 C8.80748817,14.1121263 9.42246565,13.8240409 9.96363738,13.4052182 C10.2638091,13.1729085 10.5567408,12.9284418 10.8350577,12.6691848 C11.1459739,12.3795748 11.4161072,12.0492765 11.6677555,11.7025048 C12.0900639,11.1205525 12.4209286,10.4898732 12.6520892,9.80432892 C12.7631155,9.47507998 12.8605669,9.14151472 12.9031597,8.79408967 C12.9358938,8.52711073 12.9907716,8.26013179 12.9936984,7.99267769 C13.0045969,6.99980275 12.9980501,6.00665062 12.9980501,5.01357768 Z M7.05606246,7.90746487 C7.23373908,7.68790964 7.40830205,7.46557257 7.58597868,7.24601734 C7.71952868,7.0809692 7.85682696,6.91930944 7.99065459,6.75451228 C8.17299178,6.53002088 8.35296894,6.30339603 8.53518713,6.07880004 C8.66893544,5.91394015 8.80553959,5.75165291 8.93926807,5.58677209 C9.12358848,5.35949886 9.30562818,5.13017585 9.49006758,4.90300719 C9.6238754,4.73818912 9.75887313,4.57441686 9.89551695,4.41221328 C9.98143001,4.31024778 10.0615521,4.19901651 10.1617245,4.11512245 C10.3212745,3.98151105 10.5089862,3.96670252 10.6920373,4.05770804 C10.8553753,4.13892486 10.9570946,4.27462787 10.9912456,4.47251411 C11.0315447,4.7059994 10.9269695,4.87065013 10.7952242,5.0319125 C10.5632074,5.31588901 10.3341059,5.60252185 10.1022477,5.88664476 C9.92332168,6.10592808 9.74062753,6.32182303 9.56221711,6.54158742 C9.34606603,6.80786899 9.13328643,7.07722521 8.9178493,7.34415519 C8.78876155,7.50407891 8.65667915,7.66130448 8.52719476,7.82085172 C8.33851127,8.05333303 8.15153335,8.28736214 7.9626912,8.51969706 C7.83094594,8.68179605 7.69634484,8.84132236 7.56469873,9.00352594 C7.38019467,9.23063417 7.19671177,9.45866294 7.01425621,9.68760457 C6.88889692,9.8450393 6.75203494,9.99084471 6.5450265,9.99937844 C6.40602266,10.0050885 6.26779228,9.97245955 6.16101574,9.85974324 C5.48358767,9.14479259 4.80383924,8.4322891 4.12974297,7.71386639 C3.98974753,7.56467258 3.97550801,7.36994463 4.02828148,7.17435913 C4.08436692,6.96647503 4.22674224,6.84932452 4.4216927,6.80544275 C4.62475453,6.75974129 4.79632284,6.83060468 4.9408202,6.9830614 C5.42910864,7.49824336 5.91749623,8.01332072 6.40598299,8.52829354 C6.43103106,8.55466861 6.45750704,8.57962139 6.48463748,8.60658212 C6.67806086,8.37012675 6.86811278,8.13973705 7.05606246,7.90746487 Z" id="形状"></path>
        </g>
    </g>
</svg>