<?xml version="1.0" encoding="UTF-8"?>
<svg width="18px" height="18px" viewBox="0 0 18 18" version="1.1" xmlns="http://www.w3.org/2000/svg" xmlns:xlink="http://www.w3.org/1999/xlink">
    <!-- Generator: Sketch 63.1 (92452) - https://sketch.com -->
    <title>icon-todo-important</title>
    <desc>Created with Sketch.</desc>
    <g id="icon-todo-important" stroke="none" stroke-width="1" fill="none" fill-rule="evenodd">
        <g id="Icon/interface/39.star/outline" transform="translate(1.000000, 1.400000)" fill="#333333" fill-rule="nonzero">
            <path d="M15.4828623,5.3209308 L10.6863675,4.63152739 L8.54220776,0.332564659 C8.48364481,0.214861638 8.3872993,0.119578239 8.26828427,0.0616608798 C7.96980212,-0.0840666704 7.60708963,0.0373729548 7.45784856,0.332564659 L5.31368881,4.63152739 L0.517194001,5.3209308 C0.384955074,5.33961382 0.264050912,5.40126778 0.171483663,5.49468288 C-0.0608790239,5.73195722 -0.0571007688,6.10935421 0.182818428,6.34102365 L3.65314571,9.6871524 L2.83326436,14.412088 C2.81059483,14.5410008 2.83137523,14.6755185 2.89371644,14.7913533 C3.0486249,15.0828084 3.41511564,15.1967748 3.70981953,15.0417057 L8.00002816,12.8109532 L12.2902368,15.0417057 C12.4073627,15.1033597 12.5433799,15.123911 12.6737297,15.1014914 C13.0024379,15.0454423 13.2234658,14.7371725 13.166792,14.412088 L12.3469106,9.6871524 L15.8172379,6.34102365 C15.9116943,6.24947685 15.9740355,6.12990553 15.9929268,5.9991244 C16.0439332,5.67217156 15.8134596,5.36950665 15.4828623,5.3209308 Z M10.666667,9.00540393 L11.2966845,12.5427627 L8.00000033,10.8741655 L4.70331621,12.5444448 L5.33333367,9.00708598 L2.666667,6.50082607 L6.35253087,5.9844356 L8.00000033,2.766667 L9.64746979,5.9844356 L13.3333337,6.50082607 L10.666667,9.00540393 Z" id="fill"></path>
        </g>
    </g>
</svg>