<?xml version="1.0" encoding="UTF-8"?>
<svg width="50px" height="50px" viewBox="0 0 50 50" version="1.1" xmlns="http://www.w3.org/2000/svg" xmlns:xlink="http://www.w3.org/1999/xlink">
    <!-- Generator: Sketch 56.2 (81672) - https://sketch.com -->
    <title>icon-thumbnail-official-mk</title>
    <desc>Created with Sketch.</desc>
    <g id="icon-thumbnail-official-mk" stroke="none" stroke-width="1" fill="none" fill-rule="evenodd">
        <path d="M3.66410059,10.4961509 L10.3358994,20.5038491 C10.9486043,21.4229065 12.190343,21.6712542 13.1094004,21.0585493 C13.329105,20.9120796 13.5176309,20.7235537 13.6641006,20.5038491 L20.3358994,10.4961509 C20.9486043,9.57709351 22.190343,9.32874577 23.1094004,9.94145069 C23.6657977,10.3123822 24,10.9368449 24,11.6055513 L24,39 C24,40.1045695 23.1045695,41 22,41 L2,41 C0.8954305,41 1.3527075e-16,40.1045695 0,39 L0,11.6055513 C-4.35411824e-15,10.5009818 0.8954305,9.60555128 2,9.60555128 C2.66870638,9.60555128 3.29316903,9.93975355 3.66410059,10.4961509 Z M49.6,12.2 L40.9,23.8 C40.3666667,24.5111111 40.3666667,25.4888889 40.9,26.2 L49.6,37.8 C50.2627417,38.6836556 50.0836556,39.9372583 49.2,40.6 C48.8538077,40.8596443 48.4327404,41 48,41 L30,41 C28.8954305,41 28,40.1045695 28,39 L28,11 C28,9.8954305 28.8954305,9 30,9 L48,9 C49.1045695,9 50,9.8954305 50,11 C50,11.4327404 49.8596443,11.8538077 49.6,12.2 Z" id="形状结合" fill="#CFCFCF"></path>
    </g>
</svg>