<?xml version="1.0" encoding="UTF-8"?>
<svg width="36px" height="36px" viewBox="0 0 36 36" version="1.1" xmlns="http://www.w3.org/2000/svg" xmlns:xlink="http://www.w3.org/1999/xlink">
    <!-- Generator: Sketch 57.1 (83088) - https://sketch.com -->
    <title>icon-alert-warning</title>
    <desc>Created with Sketch.</desc>
    <g id="icon-alert-warning" stroke="none" stroke-width="1" fill="none" fill-rule="evenodd">
        <g id="gaojingkongxin" transform="translate(16.000000, 7.000000)" fill="#333333" fill-rule="nonzero">
            <path d="M3.74734043,0.180851064 L0.156914894,0.180851064 L0.548271277,15.7393617 L3.35598404,15.7393617 L3.74734043,0.180851064 Z M3.21835106,18.655984 C2.8857032,18.3156117 2.42801296,18.1265657 1.95212766,18.1329787 C1.46143617,18.1329787 1.03776596,18.3077128 0.685904255,18.655984 C0.340233996,18.9879728 0.148541184,19.4489897 0.156914894,19.9281915 C0.156914894,20.4368351 0.332845745,20.8628989 0.685904255,21.2075798 C1.03776596,21.5510638 1.46023936,21.7234043 1.95212766,21.7234043 C2.44281915,21.7234043 2.86648936,21.5510638 3.21835106,21.2075798 C3.57140957,20.8628989 3.74734043,20.4368351 3.74734043,19.9281915 C3.74734043,19.4291223 3.57140957,19.0042553 3.21835106,18.655984 L3.21835106,18.655984 Z" id="形状"></path>
        </g>
    </g>
</svg>