<?xml version="1.0" encoding="UTF-8"?>
<svg width="36px" height="36px" viewBox="0 0 36 36" version="1.1" xmlns="http://www.w3.org/2000/svg" xmlns:xlink="http://www.w3.org/1999/xlink">
    <!-- Generator: Sketch 57.1 (83088) - https://sketch.com -->
    <title>icon-alert-info</title>
    <desc>Created with Sketch.</desc>
    <g id="icon-alert-info" stroke="none" stroke-width="1" fill="none" fill-rule="evenodd">
        <g id="xinxikongxin" transform="translate(16.000000, 7.000000)" fill="#333333" fill-rule="nonzero">
            <path d="M3.59089596,21.5427387 L3.19953958,5.98422806 L0.391826813,5.98422806 L0.000470429605,21.5427387 L3.59089596,21.5427387 Z M3.0619066,3.06760572 C3.41496511,2.71933444 3.59089596,2.29446742 3.59089596,1.79539827 C3.59089596,1.28675466 3.41496511,0.860690825 3.0619066,0.516009974 C2.72725908,0.179453143 2.27024802,-0.00672055067 1.7956832,0.000185506309 C1.30499171,0.000185506309 0.881321493,0.172525932 0.529459791,0.516009974 C0.181187948,0.849194621 -0.0108091902,1.31354969 0.000470429605,1.79539827 C0.000470429605,2.29446742 0.176401281,2.71933444 0.529459791,3.06760572 C0.881321493,3.415877 1.3037949,3.59061104 1.7956832,3.59061104 C2.28637468,3.59061104 2.7100449,3.415877 3.0619066,3.06760572 L3.0619066,3.06760572 Z" id="形状"></path>
        </g>
    </g>
</svg>