<?xml version="1.0" encoding="UTF-8"?>
<svg width="100px" height="100px" viewBox="0 0 100 100" version="1.1" xmlns="http://www.w3.org/2000/svg" xmlns:xlink="http://www.w3.org/1999/xlink">
    <!-- Generator: Sketch 57.1 (83088) - https://sketch.com -->
    <title>21-haze</title>
    <desc>Created with Sketch.</desc>
    <g id="21-haze" stroke="none" stroke-width="1" fill="none" fill-rule="evenodd">
        <g id="haze-fill" transform="translate(4.000000, 8.000000)" fill="#333333" fill-rule="nonzero">
            <path d="M21.2442708,50.0651042 C19.5981586,40.2715911 23.9048396,30.432343 32.2165139,24.9973957 C40.5281883,19.5624484 51.2686867,19.5624484 59.5803611,24.9973957 C67.8920354,30.432343 72.1987164,40.2715911 70.5526042,50.0651042 L21.2442708,50.0651042 Z M4.2317708,58.3984375 L45.8984375,58.3984375 L45.8984375,66.7317708 L4.2317708,66.7317708 L4.2317708,58.3984375 Z M54.2317708,58.3984375 L87.5651042,58.3984375 L87.5651042,66.7317708 L54.2317708,66.7317708 L54.2317708,58.3984375 Z M62.5651042,75.0651042 L79.2317708,75.0651042 L79.2317708,83.3984375 L62.5651042,83.3984375 L62.5651042,75.0651042 Z M12.5651042,75.0651042 L54.2317708,75.0651042 L54.2317708,83.3984375 L12.5651042,83.3984375 L12.5651042,75.0651042 Z M41.7317708,0.0651041992 L50.0651042,0.0651041992 L50.0651042,12.5651042 L41.7317708,12.5651042 L41.7317708,0.0651041992 L41.7317708,0.0651041992 Z M10.5442708,16.4359375 L16.4359375,10.5442708 L25.2734375,19.3817708 L19.3817708,25.2734375 L10.5442708,16.4401042 L10.5442708,16.4359375 Z M75.3567708,10.5442708 L81.2484375,16.4359375 L72.4109375,25.2734375 L66.5192708,19.3817708 L75.3567708,10.5442708 Z M91.7317708,41.7317708 L91.7317708,50.0651042 L79.2317708,50.0651042 L79.2317708,41.7317708 L91.7317708,41.7317708 Z M12.5651042,41.7317708 L12.5651042,50.0651042 L0.0651041992,50.0651042 L0.0651041992,41.7317708 L12.5651042,41.7317708 Z" id="形状"></path>
        </g>
    </g>
</svg>