<?xml version="1.0" encoding="UTF-8"?>
<svg width="100px" height="100px" viewBox="0 0 100 100" version="1.1" xmlns="http://www.w3.org/2000/svg" xmlns:xlink="http://www.w3.org/1999/xlink">
    <!-- Generator: Sketch 57.1 (83088) - https://sketch.com -->
    <title>42-heavy snow</title>
    <desc>Created with Sketch.</desc>
    <g id="42-heavy-snow" stroke="none" stroke-width="1" fill="none" fill-rule="evenodd">
        <g id="hail-fill" transform="translate(4.000000, 11.000000)" fill="#333333" fill-rule="nonzero">
            <path d="M75.0442708,65.8408854 C74.7848155,60.7740142 72.2315525,56.1012199 68.1076209,53.1459383 C63.9836893,50.1906567 58.7381935,49.274724 53.8567708,50.6575521 C52.041758,42.340564 44.2520918,36.7270285 35.7880908,37.6365609 C27.3240898,38.5460933 20.9049474,45.6864918 20.8984375,54.1992188 C20.8984375,58.6992188 22.6817708,62.7783854 25.5734375,65.7742187 C10.1969717,62.0550192 -0.44732406,48.0401139 0.0963540621,32.2295933 C0.640032184,16.4190728 12.2219103,3.1684613 27.8175375,0.514302593 C43.4131647,-2.13985612 58.7262161,6.53361262 64.4692708,21.2742187 C76.5647023,18.86507 88.3975336,26.460425 91.2438505,38.4605058 C94.0901673,50.4605867 86.9290392,62.5611469 75.0401042,65.8408854 L75.0442708,65.8408854 Z" id="形状"></path>
        </g>
        <polygon id="路径" fill="#333333" fill-rule="nonzero" points="65.2704339 75.1470737 69.7295661 72.5724016 72 76.5047931 67.5408678 79.0817356 72 81.6564077 69.7295661 85.5887992 65.2704339 83.0141272 65.2704339 88.1634712 60.7295661 88.1634712 60.7295661 83.0141272 56.2704339 85.5887992 54 81.6564077 58.4591322 79.0817356 54 76.5070636 56.2704339 72.574672 60.7295661 75.1493441 60.7295661 70 65.2704339 70 65.2704339 75.1493441"></polygon>
        <polygon id="路径" fill="#333333" fill-rule="nonzero" points="43.2704339 62.1470737 47.7295661 59.5724016 50 63.5047931 45.5408678 66.0817356 50 68.6564077 47.7295661 72.5887992 43.2704339 70.0141272 43.2704339 75.1634712 38.7295661 75.1634712 38.7295661 70.0141272 34.2704339 72.5887992 32 68.6564077 36.4591322 66.0817356 32 63.5070636 34.2704339 59.574672 38.7295661 62.1493441 38.7295661 57 43.2704339 57 43.2704339 62.1493441"></polygon>
    </g>
</svg>