<?xml version="1.0" encoding="UTF-8"?>
<svg width="100px" height="100px" viewBox="0 0 100 100" version="1.1" xmlns="http://www.w3.org/2000/svg" xmlns:xlink="http://www.w3.org/1999/xlink">
    <!-- Generator: Sketch 57.1 (83088) - https://sketch.com -->
    <title>47-scattered thundershowers</title>
    <desc>Created with Sketch.</desc>
    <g id="47-scattered-thundershowers" stroke="none" stroke-width="1" fill="none" fill-rule="evenodd">
        <g id="编组-3" transform="translate(4.000000, 4.000000)" fill="#333333" fill-rule="nonzero">
            <path d="M21.3924385,65.7203704 C6.24163551,59.6388153 -2.46981855,43.6686686 0.618971421,27.6377136 C3.70776139,11.6067586 17.7294127,0.0167494581 34.0552162,2.13162821e-14 C48.1082469,-0.000820668694 60.721434,8.62275681 65.8207718,21.717963 C78.2739185,20.5491446 89.448605,29.3697359 91.2039386,41.7538307 C92.9592722,54.1379254 84.6759845,65.7165088 72.3885496,68.0544444 C72.3448409,54.4274318 61.6164785,43.2318703 48.0036988,42.6076812 C34.390919,41.9834921 22.6830252,52.1502801 21.3924385,65.7161111 L21.3924385,65.7203704 Z" id="路径"></path>
            <g id="flashlight-fill" transform="translate(29.914591, 46.966725)">
                <polygon id="路径" points="18.5625 18.8181818 33 18.8181818 14.4375 46 14.4375 27.1818182 0 27.1818182 18.5625 0"></polygon>
            </g>
        </g>
    </g>
</svg>