<?xml version="1.0" encoding="UTF-8"?>
<svg width="101px" height="100px" viewBox="0 0 101 100" version="1.1" xmlns="http://www.w3.org/2000/svg" xmlns:xlink="http://www.w3.org/1999/xlink">
    <!-- Generator: Sketch 57.1 (83088) - https://sketch.com -->
    <title>23-blustery</title>
    <desc>Created with Sketch.</desc>
    <g id="23-blustery" stroke="none" stroke-width="1" fill="none" fill-rule="evenodd" transform="translate(1.000000, 0.000000)">
        <g id="windy-fill" transform="translate(8.000000, 8.000000)" fill="#333333" fill-rule="nonzero">
            <path d="M35.6614895,62.9069985 L8.41598057,62.9069985 L8.41598057,54.523765 L35.6614895,54.523765 C43.0856167,54.5264136 49.3375707,60.0748 50.2223567,67.446016 C51.1071428,74.817232 46.3458401,81.687568 39.1332322,83.4471017 C31.9206243,85.2066354 24.5304209,81.3006895 21.9213698,74.3501122 L29.7722679,71.4034057 C30.8901416,74.3823698 34.0572533,76.0566676 37.1484698,75.3028447 C40.2396863,74.5490217 42.2805078,71.6047191 41.9015421,68.4455652 C41.5225765,65.2864113 38.843292,62.9083229 35.6614895,62.9069985 Z M12.6075973,37.7572979 L69.1944236,37.7572979 C76.6185508,37.7599465 82.8705047,43.3083329 83.7552908,50.6795489 C84.6400768,58.0507649 79.8787742,64.9211009 72.6661663,66.6806346 C65.4535584,68.4401683 58.063355,64.5342225 55.4543039,57.5836452 L63.3052021,54.6369386 C64.4230758,57.6159028 67.5901875,59.2902006 70.681404,58.5363777 C73.7726206,57.7825547 75.813442,54.8382521 75.4344764,51.6790982 C75.0555107,48.5199442 72.3762261,46.1418559 69.1944236,46.1405315 L12.6075973,46.1405315 C5.66269922,46.1405315 0.0327469732,40.5105792 0.0327469732,33.5656812 C0.0327469732,26.6207831 5.66269922,20.9908309 12.6075973,20.9908309 L48.2363398,20.9908309 C51.4181423,20.9895064 54.0974268,18.6114181 54.4763924,15.4522641 C54.8553581,12.2931102 52.8145366,9.34880765 49.7233201,8.59498468 C46.6321036,7.84116172 43.4649919,9.51545953 42.3471182,12.4944236 L34.4962201,9.55190865 C36.9914728,2.91573552 43.874298,-0.987584866 50.8503346,0.277323528 C57.8263712,1.54223192 62.9005628,7.61362164 62.9069985,14.7034057 C62.9069985,18.5943063 61.3613442,22.3258457 58.610062,25.0771279 C55.8587798,27.8284101 52.1272404,29.3740644 48.2363398,29.3740644 L12.6075973,29.3740644 C11.109924,29.3738351 9.72591872,30.1727026 8.97701589,31.4696875 C8.22811306,32.7666724 8.22811306,34.3646899 8.97701589,35.6616748 C9.72591872,36.9586597 11.109924,37.7575272 12.6075973,37.7572979 Z" id="形状"></path>
        </g>
    </g>
</svg>