<?xml version="1.0" encoding="UTF-8"?>
<svg width="100px" height="100px" viewBox="0 0 100 100" version="1.1" xmlns="http://www.w3.org/2000/svg" xmlns:xlink="http://www.w3.org/1999/xlink">
    <!-- Generator: Sketch 57.1 (83088) - https://sketch.com -->
    <title>31-clear (night)</title>
    <desc>Created with Sketch.</desc>
    <g id="31-clear-(night)" stroke="none" stroke-width="1" fill="none" fill-rule="evenodd">
        <g id="moon-clear-fill" transform="translate(4.000000, 4.000000)" fill="#333333" fill-rule="nonzero">
            <path d="M32.6242187,9.325 C26.0547365,23.5857436 29.0650429,40.4293608 40.1674504,51.5317683 C51.269858,62.6341758 68.1134751,65.6444823 82.3742187,59.075 C78.2325521,77.725 61.5950521,91.6666667 41.6992188,91.6666667 C18.6867187,91.6666667 0.0325520508,73.0125 0.0325520508,50 C0.0325520508,30.1041667 13.9742188,13.4666667 32.6242187,9.325 Z M67.3825521,9.5458333 L70.8658854,10.4166667 L70.8658854,14.5833333 L67.3825521,15.4541667 C64.3974191,16.2007295 62.0666148,18.5315337 61.3200521,21.5166667 L60.4492187,25 L56.2825521,25 L55.4117187,21.5166667 C54.665156,18.5315337 52.3343517,16.2007295 49.3492187,15.4541667 L45.8658854,14.5833333 L45.8658854,10.4166667 L49.3492187,9.5458333 C52.332745,8.79792899 54.6616992,6.46737305 55.4075521,3.4833333 L56.2825521,0 L60.4492187,0 L61.3200521,3.4833333 C62.0666148,6.46846628 64.3974191,8.79927054 67.3825521,9.5458333 Z M88.2158854,30.3791667 L91.6992188,31.25 L91.6992188,35.4166667 L88.2158854,36.2875 C85.2307525,37.0340628 82.8999482,39.364867 82.1533854,42.35 L81.2825521,45.8333333 L77.1158854,45.8333333 L76.2450521,42.35 C75.4984893,39.364867 73.167685,37.0340628 70.1825521,36.2875 L66.6992188,35.4166667 L66.6992188,31.25 L70.1825521,30.3791667 C73.167685,29.6326039 75.4984893,27.3017997 76.2450521,24.3166667 L77.1158854,20.8333333 L81.2825521,20.8333333 L82.1533854,24.3166667 C82.8999482,27.3017997 85.2307525,29.6326039 88.2158854,30.3791667 L88.2158854,30.3791667 Z" id="形状"></path>
        </g>
    </g>
</svg>