<?xml version="1.0" encoding="UTF-8"?>
<svg width="101px" height="100px" viewBox="0 0 101 100" version="1.1" xmlns="http://www.w3.org/2000/svg" xmlns:xlink="http://www.w3.org/1999/xlink">
    <!-- Generator: Sketch 57.1 (83088) - https://sketch.com -->
    <title>34-fair (day)</title>
    <desc>Created with Sketch.</desc>
    <g id="34-fair-(day)" stroke="none" stroke-width="1" fill="none" fill-rule="evenodd" transform="translate(1.000000, 0.000000)">
        <g id="sun-fill" transform="translate(4.000000, 4.000000)" fill="#333333" fill-rule="nonzero">
            <path d="M45.8984375,70.8984375 C32.0913188,70.8984375 20.8984375,59.7055562 20.8984375,45.8984375 C20.8984375,32.0913188 32.0913188,20.8984375 45.8984375,20.8984375 C59.7055562,20.8984375 70.8984375,32.0913188 70.8984375,45.8984375 C70.8984375,59.7055562 59.7055562,70.8984375 45.8984375,70.8984375 Z M41.7317708,0.0651041992 L50.0651042,0.0651041992 L50.0651042,12.5651042 L41.7317708,12.5651042 L41.7317708,0.0651041992 Z M41.7317708,79.2317708 L50.0651042,79.2317708 L50.0651042,91.7317708 L41.7317708,91.7317708 L41.7317708,79.2317708 Z M10.5442708,16.4359375 L16.4359375,10.5442708 L25.2734375,19.3817708 L19.3817708,25.2734375 L10.5442708,16.4401042 L10.5442708,16.4359375 Z M66.5234375,72.4151042 L72.4151042,66.5234375 L81.2526042,75.3609375 L75.3609375,81.2526042 L66.5234375,72.4151042 Z M75.3609375,10.5401042 L81.2526042,16.4359375 L72.4151042,25.2734375 L66.5234375,19.3817708 L75.3609375,10.5442708 L75.3609375,10.5401042 Z M19.3817708,66.5234375 L25.2734375,72.4151042 L16.4359375,81.2526042 L10.5442708,75.3609375 L19.3817708,66.5234375 Z M91.7317708,41.7317708 L91.7317708,50.0651042 L79.2317708,50.0651042 L79.2317708,41.7317708 L91.7317708,41.7317708 Z M12.5651042,41.7317708 L12.5651042,50.0651042 L0.0651041992,50.0651042 L0.0651041992,41.7317708 L12.5651042,41.7317708 Z" id="形状"></path>
        </g>
    </g>
</svg>