<?xml version="1.0" encoding="UTF-8"?>
<svg width="100px" height="100px" viewBox="0 0 100 100" version="1.1" xmlns="http://www.w3.org/2000/svg" xmlns:xlink="http://www.w3.org/1999/xlink">
    <!-- Generator: Sketch 57.1 (83088) - https://sketch.com -->
    <title>36-hot</title>
    <desc>Created with Sketch.</desc>
    <g id="36-hot" stroke="none" stroke-width="1" fill="none" fill-rule="evenodd">
        <path d="M25.2442708,58.0651042 C23.5981586,48.2715911 27.9048396,38.432343 36.2165139,32.9973957 C44.5281883,27.5624484 55.2686867,27.5624484 63.5803611,32.9973957 C71.8920354,38.432343 76.1987164,48.2715911 74.5526042,58.0651042 L25.2442708,58.0651042 Z" id="路径" fill="#333333" fill-rule="nonzero"></path>
        <polygon id="路径" fill="#333333" fill-rule="nonzero" points="45.7317708 8.0651042 54.0651042 8.0651042 54.0651042 20.5651042 45.7317708 20.5651042 45.7317708 8.0651042"></polygon>
        <polygon id="路径" fill="#333333" fill-rule="nonzero" points="14.5442708 24.4359375 20.4359375 18.5442708 29.2734375 27.3817708 23.3817708 33.2734375 14.5442708 24.4401042"></polygon>
        <polygon id="路径" fill="#333333" fill-rule="nonzero" points="79.3567708 18.5442708 85.2484375 24.4359375 76.4109375 33.2734375 70.5192708 27.3817708"></polygon>
        <polygon id="路径" fill="#333333" fill-rule="nonzero" points="95.7317708 49.7317708 95.7317708 58.0651042 83.2317708 58.0651042 83.2317708 49.7317708"></polygon>
        <polygon id="路径" fill="#333333" fill-rule="nonzero" points="16.5651042 49.7317708 16.5651042 58.0651042 4.0651042 58.0651042 4.0651042 49.7317708"></polygon>
        <path d="M29.1879474,65 C26.2706842,69.1666667 26.2706842,74.0973788 29.1879474,79.7921364 C32.1052106,85.486894 32.1052106,90.4176061 29.1879474,94.5842728" id="路径-2" stroke="#333333" stroke-width="8"></path>
        <path d="M50.1879474,65 C47.2706842,69.1666667 47.2706842,74.0973788 50.1879474,79.7921364 C53.1052106,85.486894 53.1052106,90.4176061 50.1879474,94.5842728" id="路径-2" stroke="#333333" stroke-width="8"></path>
        <path d="M71.1879474,65 C68.2706842,69.1666667 68.2706842,74.0973788 71.1879474,79.7921364 C74.1052106,85.486894 74.1052106,90.4176061 71.1879474,94.5842728" id="路径-2" stroke="#333333" stroke-width="8"></path>
    </g>
</svg>