<?xml version="1.0" encoding="UTF-8"?>
<svg width="100px" height="100px" viewBox="0 0 100 100" version="1.1" xmlns="http://www.w3.org/2000/svg" xmlns:xlink="http://www.w3.org/1999/xlink">
    <!-- Generator: Sketch 57.1 (83088) - https://sketch.com -->
    <title>5-mixed rain and snow</title>
    <desc>Created with Sketch.</desc>
    <g id="5-mixed-rain-and-snow" stroke="none" stroke-width="1" fill="none" fill-rule="evenodd">
        <path d="M45.7317708,72.6992187 L45.7317708,85.1992187 L37.3984375,85.1992187 L37.3984375,72.6992187 C20.5806051,72.6939232 6.40088476,60.1613564 4.32941755,43.4715829 C2.25795034,26.7818094 12.9436416,11.1630482 29.2498907,7.04652556 C45.5561397,2.93000293 62.3748699,11.6052559 68.4734375,27.2783854 C77.0233187,25.6338824 85.7666065,28.9764059 91.0389878,35.9051038 C96.3113691,42.8338017 97.2020494,52.1517539 93.3377445,59.9538053 C89.4734397,67.7558568 81.5217013,72.6942171 72.8151042,72.6992187 L45.7317708,72.6992187 Z" id="路径" fill="#333333" fill-rule="nonzero"></path>
        <polygon id="路径" fill="#333333" fill-rule="nonzero" points="63.2704339 80.1470737 67.7295661 77.5724016 70 81.5047931 65.5408678 84.0817356 70 86.6564077 67.7295661 90.5887992 63.2704339 88.0141272 63.2704339 93.1634712 58.7295661 93.1634712 58.7295661 88.0141272 54.2704339 90.5887992 52 86.6564077 56.4591322 84.0817356 52 81.5070636 54.2704339 77.574672 58.7295661 80.1493441 58.7295661 75 63.2704339 75 63.2704339 80.1493441"></polygon>
    </g>
</svg>