<?xml version="1.0" encoding="UTF-8"?>
<svg width="101px" height="100px" viewBox="0 0 101 100" version="1.1" xmlns="http://www.w3.org/2000/svg" xmlns:xlink="http://www.w3.org/1999/xlink">
    <!-- Generator: Sketch 57.1 (83088) - https://sketch.com -->
    <title>44-not available </title>
    <desc>Created with Sketch.</desc>
    <g id="44-not-available-" stroke="none" stroke-width="1" fill="none" fill-rule="evenodd" transform="translate(1.000000, 0.000000)">
        <g id="wi-na" transform="translate(17.000000, 36.000000)" fill="#333333" fill-rule="nonzero">
            <path d="M4.54747351e-13,27.3974175 L7.86486486,27.3974175 L7.86486486,12.7747489 L7.94594595,12.7747489 L16.2567568,27.3974175 L24.3243243,27.3974175 L24.3243243,0.642754663 L16.4594595,0.642754663 L16.4594595,14.9038737 L16.3783784,14.9038737 L8.51351351,0.642754663 L4.54747351e-13,0.642754663 L4.54747351e-13,27.3974175 Z M26.4324324,28 L32.2297297,28 L42.8108108,0 L37.0540541,0 L26.4324324,28 Z M38.0675676,27.3974175 L46.4594595,27.3974175 L47.6351351,23.5810617 L56.2297297,23.5810617 L57.3648649,27.3974175 L66,27.3974175 L56.1486486,0.642754663 L48,0.642754663 L38.0675676,27.3974175 Z M49.4594595,17.7962697 L52.0540541,9.60114778 L52.1756757,9.60114778 L54.6081081,17.7962697 L49.4594595,17.7962697 Z" id="形状"></path>
        </g>
    </g>
</svg>