<?xml version="1.0" encoding="UTF-8"?>
<svg width="100px" height="100px" viewBox="0 0 100 100" version="1.1" xmlns="http://www.w3.org/2000/svg" xmlns:xlink="http://www.w3.org/1999/xlink">
    <!-- Generator: Sketch 57.1 (83088) - https://sketch.com -->
    <title>9-drizzle</title>
    <desc>Created with Sketch.</desc>
    <g id="9-drizzle" stroke="none" stroke-width="1" fill="none" fill-rule="evenodd">
        <g id="drizzle-fill" transform="translate(4.000000, 6.000000)" fill="#333333" fill-rule="nonzero">
            <path d="M41.7317708,66.6992187 L41.7317708,79.1992187 L33.3984375,79.1992187 L33.3984375,66.6992187 C16.5806051,66.6939232 2.40088476,54.1613564 0.32941755,37.4715829 C-1.74204966,20.7818094 8.94364164,5.1630482 25.2498907,1.04652556 C41.5561397,-3.06999707 58.3748699,5.60525593 64.4734375,21.2783854 C73.0233187,19.6338824 81.7666065,22.9764059 87.0389878,29.9051038 C92.3113691,36.8338017 93.2020494,46.1517539 89.3377445,53.9538053 C85.4734397,61.7558568 77.5217013,66.6942171 68.8151042,66.6992187 L41.7317708,66.6992187 Z M50.0651042,75.0325521 L58.3984375,75.0325521 L58.3984375,87.5325521 L50.0651042,87.5325521 L50.0651042,75.0325521 Z" id="形状"></path>
        </g>
    </g>
</svg>