<?xml version="1.0" encoding="UTF-8"?>
<svg width="100px" height="100px" viewBox="0 0 100 100" version="1.1" xmlns="http://www.w3.org/2000/svg" xmlns:xlink="http://www.w3.org/1999/xlink">
    <!-- Generator: Sketch 57.1 (83088) - https://sketch.com -->
    <title>22-smoky</title>
    <desc>Created with Sketch.</desc>
    <g id="22-smoky" stroke="none" stroke-width="1" fill="none" fill-rule="evenodd">
        <g id="wi-smog" transform="translate(9.000000, 4.000000)" fill="#333333" fill-rule="nonzero">
            <path d="M1.59444444,38.54 C1.59444444,34.2577778 2.96111111,30.4766667 5.69444444,27.1511111 C8.42777778,23.8255556 11.9355556,21.6388889 16.2177778,20.6366667 C17.2655556,15.58 19.8166667,11.3888889 23.9622222,8.10888889 C28.1077778,4.82888889 32.8455556,3.18888889 38.1755556,3.18888889 C43.2777778,3.18888889 47.8788889,4.78333333 51.8422222,7.92666667 C55.8511111,11.07 58.4477778,15.17 59.6777778,20.2266667 L60.9533333,20.2266667 C64.4155556,20.2266667 67.6044444,20.9555556 70.6111111,22.4588889 C73.6177778,23.9622222 75.9866667,25.9666667 77.7633333,28.5633333 C79.54,31.16 80.4511111,33.9388889 80.4511111,36.9455556 C80.4511111,42.0477778 78.4922222,46.4211111 74.5744444,49.9744444 C74.5744444,51.5688889 74.0733333,53.3911111 73.1166667,55.4411111 C72.1144444,57.4911111 70.8388889,59.3588889 69.1533333,61.0444444 C67.5133333,62.73 65.8277778,63.7322222 64.1422222,64.1422222 C63.5955556,66.9666667 62.2744444,69.3355556 60.2244444,71.2944444 C58.1744444,73.2533333 55.7144444,74.5288889 52.7988889,75.1666667 C54.1655556,76.5333333 54.8488889,78.1277778 54.8488889,79.9955556 C54.8488889,82.2277778 54.0744444,84.1411111 52.48,85.7355556 C50.8855556,87.33 48.9722222,88.1044444 46.6944444,88.1044444 C44.4622222,88.1044444 42.5488889,87.33 40.9544444,85.7355556 C39.36,84.1411111 38.54,82.2277778 38.54,79.9955556 C38.54,79.7222222 38.5855556,79.3577778 38.7222222,78.8111111 C38.8588889,78.2644444 38.9044444,77.8544444 38.9044444,77.5811111 L38.54,77.5811111 C35.8522222,77.5811111 33.5744444,76.6244444 31.6611111,74.7111111 C29.7477778,72.7977778 28.7911111,70.4744444 28.7911111,67.8322222 C28.7911111,66.7844444 29.3377778,65.19 30.4766667,63.0033333 C28.2444444,61.8188889 26.4677778,59.9511111 25.1466667,57.2633333 L19.4522222,57.2633333 C14.4866667,56.8533333 10.25,54.8488889 6.78777778,51.3411111 C3.32555556,47.7877778 1.59444444,43.5055556 1.59444444,38.54 Z" id="路径"></path>
        </g>
    </g>
</svg>