<?xml version="1.0" encoding="UTF-8"?>
<svg width="100px" height="100px" viewBox="0 0 100 100" version="1.1" xmlns="http://www.w3.org/2000/svg" xmlns:xlink="http://www.w3.org/1999/xlink">
    <!-- Generator: Sketch 57.1 (83088) - https://sketch.com -->
    <title>15-blowing snow</title>
    <desc>Created with Sketch.</desc>
    <g id="15-blowing-snow" stroke="none" stroke-width="1" fill="none" fill-rule="evenodd">
        <g id="snowy-fill" transform="translate(4.000000, 7.000000)" fill="#333333" fill-rule="nonzero">
            <path d="M21.4778472,65.7536458 C6.32704427,59.6720907 -2.3844098,43.7019441 0.704380176,27.670989 C3.79317015,11.640034 17.8148214,0.0500248878 34.140625,0.0332754297 C48.1936557,0.032454761 60.8068427,8.65603224 65.9061806,21.7512385 C78.3593273,20.58242 89.5340138,29.4030113 91.2893474,41.7871061 C93.044681,54.1712009 84.7613932,65.7497843 72.4739583,68.0877199 C72.4302496,54.4607072 61.7018873,43.2651457 48.0891075,42.6409566 C34.4763278,42.0167675 22.768434,52.1835556 21.4778472,65.7493865 L21.4778472,65.7536458 Z M51.1776621,60.8001273 L59.5428472,55.9701273 L63.8021065,63.3471643 L55.4369213,68.1814236 L63.8021065,73.0114236 L59.5428472,80.3884607 L51.1776621,75.5584607 L51.1776621,85.2184607 L42.6591435,85.2184607 L42.6591435,75.5584607 L34.2939583,80.3884607 L30.034699,73.0114236 L38.3998843,68.1814236 L30.034699,63.3514236 L34.2939583,55.9743865 L42.6591435,60.8043865 L42.6591435,51.1443865 L51.1776621,51.1443865 L51.1776621,60.8043865 L51.1776621,60.8001273 Z" id="形状"></path>
        </g>
    </g>
</svg>