<?xml version="1.0" encoding="UTF-8"?>
<svg width="100px" height="100px" viewBox="0 0 100 100" version="1.1" xmlns="http://www.w3.org/2000/svg" xmlns:xlink="http://www.w3.org/1999/xlink">
    <!-- Generator: Sketch 57.1 (83088) - https://sketch.com -->
    <title>41-scattered snow showers (day) </title>
    <desc>Created with Sketch.</desc>
    <g id="41-scattered-snow-showers-(day)-" stroke="none" stroke-width="1" fill="none" fill-rule="evenodd">
        <g id="showers-fill" transform="translate(4.000000, 6.000000)" fill="#333333" fill-rule="nonzero">
            <path d="M58.3984375,66.6992187 L33.3984375,66.6992187 L33.3984375,79.1992187 L25.0651042,79.1992187 L25.0651042,65.6492188 C9.81433764,61.7028455 -0.591662867,47.618812 0.115886504,31.8816231 C0.823435876,16.1444341 12.4513422,3.0510526 27.9947211,0.48919464 C43.5380999,-2.07266332 58.7529073,6.59650516 64.4734375,21.2742188 C73.0197099,19.6390081 81.7548218,22.9849133 87.0217165,29.911132 C92.2886113,36.8373508 93.1785991,46.1489125 89.3190763,53.9474233 C85.4595534,61.745934 77.5163978,66.6859279 68.8151042,66.6992187 L66.7317708,66.7033854 L66.7317708,79.2033854 L58.3984375,79.2033854 L58.3984375,66.7033854 L58.3984375,66.6992187 Z" id="形状"></path>
        </g>
        <polygon id="路径" fill="#333333" fill-rule="nonzero" points="52.2704339 83.1470737 56.7295661 80.5724016 59 84.5047931 54.5408678 87.0817356 59 89.6564077 56.7295661 93.5887992 52.2704339 91.0141272 52.2704339 96.1634712 47.7295661 96.1634712 47.7295661 91.0141272 43.2704339 93.5887992 41 89.6564077 45.4591322 87.0817356 41 84.5070636 43.2704339 80.574672 47.7295661 83.1493441 47.7295661 78 52.2704339 78 52.2704339 83.1493441"></polygon>
    </g>
</svg>