<?xml version="1.0" encoding="UTF-8"?>
<svg width="100px" height="100px" viewBox="0 0 100 100" version="1.1" xmlns="http://www.w3.org/2000/svg" xmlns:xlink="http://www.w3.org/1999/xlink">
    <!-- Generator: Sketch 57.1 (83088) - https://sketch.com -->
    <title>1-tropical storm</title>
    <desc>Created with Sketch.</desc>
    <g id="1-tropical-storm" stroke="none" stroke-width="1" fill="none" fill-rule="evenodd">
        <g id="fengbaokuangbaofengjufenglongjuanfengredaifengbao" transform="translate(10.000000, 10.000000)" fill="#333333" fill-rule="nonzero" stroke="#333333" stroke-width="3">
            <path d="M79.7260802,49.6720679 C79.0895062,40.7986111 72.8298611,31.8962191 63.3873457,26.4467593 C56.8094136,22.6466049 49.4791667,20.9780093 42.7662037,21.7496142 C39.7280093,22.0968364 36.9502315,22.9359568 34.5003858,24.2283951 C36.7091049,21.6435185 39.4772377,19.3479938 42.6697531,17.505787 C46.6338735,15.2199074 50.9548611,13.8117284 55.1697531,13.445216 C59.1628086,13.0979938 62.8665123,13.6863426 65.8950617,15.162037 C67.2357253,15.8179012 68.8560957,15.2584877 69.5023148,13.908179 C70.148534,12.5578704 69.5987654,10.9471451 68.2484568,10.3009259 C60.2430556,6.41396605 49.4020062,7.37847222 39.9594907,12.8279321 C33.3719136,16.6280864 28.2696759,22.1354167 25.5787037,28.3371914 C24.3634259,31.1439043 23.6979167,33.9602623 23.591821,36.7283951 C22.4537037,33.5262346 21.8557099,29.9768519 21.8557099,26.2924383 C21.8557099,21.711034 22.8009259,17.2646605 24.5949074,13.435571 C26.2924383,9.79938272 28.6554784,6.88657407 31.4429012,5.00578704 C32.6774691,4.16666667 33.0054012,2.48842593 32.1662809,1.25385802 C31.3271605,0.0192901235 29.6489198,-0.308641975 28.4143519,0.530478395 C21.0455247,5.51697531 16.4641204,15.3935185 16.4641204,26.2924383 C16.4641204,33.8927469 18.6824846,41.0686728 22.7044753,46.4988426 C24.527392,48.9583333 26.6396605,50.945216 28.9834105,52.4209105 C25.6365741,51.8036265 22.2608025,50.5497685 19.068287,48.7075617 C15.1041667,46.4216821 11.7283951,43.3738426 9.29783951,39.9112654 C7.00231481,36.6222994 5.66165123,33.121142 5.42052469,29.7646605 C5.31442901,28.279321 4.02199074,27.1604938 2.53665123,27.2665895 C1.05131173,27.3726852 -0.0675154321,28.6651235 0.0385802469,30.150463 C0.675154321,39.0335648 6.93479938,47.9359568 16.3676698,53.3854167 C21.9039352,56.5779321 27.9513889,58.2658179 33.7287809,58.2658179 C34.8283179,58.2658179 35.9182099,58.2079475 36.9888117,58.0825617 C40.0270062,57.7353395 42.804784,56.8962191 45.2546296,55.6037809 C43.0459105,58.1886574 40.2777778,60.4841821 37.0852623,62.3263889 C33.121142,64.6122685 28.8001543,66.0204475 24.5852623,66.3869599 C20.5922068,66.7341821 16.878858,66.1458333 13.8599537,64.6701389 C12.5192901,64.0142747 10.8989198,64.5736883 10.2527006,65.9239969 C9.60648148,67.2743056 10.15625,68.8850309 11.5065586,69.53125 C14.7665895,71.1130401 18.4895833,71.8942901 22.3958333,71.8942901 C28.0960648,71.8942901 34.1917438,70.2353395 39.7858796,67.0042438 C46.3734568,63.2040895 51.4756944,57.6967593 54.1666667,51.4949846 C55.3819444,48.6882716 56.0474537,45.8719136 56.1535494,43.1037809 C57.2916667,46.3059414 57.8896605,49.8553241 57.8896605,53.5397377 C57.8896605,58.121142 56.9444444,62.5675154 55.150463,66.3966049 C53.4529321,70.0327932 51.089892,72.9456019 48.3024691,74.8263889 C47.0679012,75.6655093 46.7399691,77.34375 47.5790895,78.5783179 C48.0999228,79.3499228 48.9486883,79.7646605 49.8167438,79.7646605 C50.3375772,79.7646605 50.8680556,79.6103395 51.3310185,79.3016975 C58.6998457,74.3152006 63.28125,64.4386574 63.28125,53.5397377 C63.28125,45.939429 61.0628858,38.7635031 57.0408951,33.3333333 C55.2179784,30.8738426 53.1153549,28.8869599 50.7619599,27.4112654 C54.1087963,28.0285494 57.4845679,29.2824074 60.6770833,31.1246142 C64.6412037,33.4104938 68.0169753,36.4583333 70.4475309,39.9209105 C72.7430556,43.2098765 74.0837191,46.711034 74.3248457,50.0675154 C74.4309414,51.4853395 75.6076389,52.5752315 77.0158179,52.5752315 C77.0833333,52.5752315 77.1412037,52.5752315 77.2087191,52.5655864 C78.7133488,52.4594907 79.8321759,51.1670525 79.7260802,49.6720679 L79.7260802,49.6720679 Z M49.1319444,35.9664352 C49.1319444,35.9760802 49.1319444,35.9760802 49.1319444,35.9664352 C49.9807099,39.6219136 49.5659722,43.0941358 47.9166667,45.9490741 L47.9166667,45.9587191 C45.1774691,48.5146605 41.9656636,49.8939043 38.6766975,49.8939043 L38.6670525,49.8939043 C35.0887346,48.7943673 32.2820216,46.711034 30.632716,43.8560957 L30.632716,43.8464506 C29.7935957,40.2006173 30.1986883,36.7283951 31.8479938,33.8734568 L31.8479938,33.8638117 C34.5871914,31.3078704 37.7989969,29.9286265 41.087963,29.9286265 L41.097608,29.9286265 C44.685571,31.0281636 47.4826389,33.1114969 49.1319444,35.9664352 L49.1319444,35.9664352 Z" id="形状"></path>
        </g>
    </g>
</svg>