<?xml version="1.0" encoding="UTF-8"?>
<svg width="101px" height="100px" viewBox="0 0 101 100" version="1.1" xmlns="http://www.w3.org/2000/svg" xmlns:xlink="http://www.w3.org/1999/xlink">
    <!-- Generator: Sketch 57.1 (83088) - https://sketch.com -->
    <title>43-blizzard</title>
    <desc>Created with Sketch.</desc>
    <g id="43-blizzard" stroke="none" stroke-width="1" fill="none" fill-rule="evenodd" transform="translate(1.000000, 0.000000)">
        <g id="hail-fill" transform="translate(4.000000, 6.000000)" fill="#333333" fill-rule="nonzero">
            <path d="M75.0442708,65.8408854 C74.7848155,60.7740142 72.2315525,56.1012199 68.1076209,53.1459383 C63.9836893,50.1906567 58.7381935,49.274724 53.8567708,50.6575521 C52.041758,42.340564 44.2520918,36.7270285 35.7880908,37.6365609 C27.3240898,38.5460933 20.9049474,45.6864918 20.8984375,54.1992188 C20.8984375,58.6992188 22.6817708,62.7783854 25.5734375,65.7742187 C10.1969717,62.0550192 -0.44732406,48.0401139 0.0963540621,32.2295933 C0.640032184,16.4190728 12.2219103,3.1684613 27.8175375,0.514302593 C43.4131647,-2.13985612 58.7262161,6.53361262 64.4692708,21.2742187 C76.5647023,18.86507 88.3975336,26.460425 91.2438505,38.4605058 C94.0901673,50.4605867 86.9290392,62.5611469 75.0401042,65.8408854 L75.0442708,65.8408854 Z" id="形状"></path>
        </g>
        <polygon id="路径" fill="#333333" fill-rule="nonzero" points="65.2704339 70.1470737 69.7295661 67.5724016 72 71.5047931 67.5408678 74.0817356 72 76.6564077 69.7295661 80.5887992 65.2704339 78.0141272 65.2704339 83.1634712 60.7295661 83.1634712 60.7295661 78.0141272 56.2704339 80.5887992 54 76.6564077 58.4591322 74.0817356 54 71.5070636 56.2704339 67.574672 60.7295661 70.1493441 60.7295661 65 65.2704339 65 65.2704339 70.1493441"></polygon>
        <polygon id="路径" fill="#333333" fill-rule="nonzero" points="43.2704339 57.1470737 47.7295661 54.5724016 50 58.5047931 45.5408678 61.0817356 50 63.6564077 47.7295661 67.5887992 43.2704339 65.0141272 43.2704339 70.1634712 38.7295661 70.1634712 38.7295661 65.0141272 34.2704339 67.5887992 32 63.6564077 36.4591322 61.0817356 32 58.5070636 34.2704339 54.574672 38.7295661 57.1493441 38.7295661 52 43.2704339 52 43.2704339 57.1493441"></polygon>
        <polygon id="路径" fill="#333333" fill-rule="nonzero" points="43.2704339 82.1470737 47.7295661 79.5724016 50 83.5047931 45.5408678 86.0817356 50 88.6564077 47.7295661 92.5887992 43.2704339 90.0141272 43.2704339 95.1634712 38.7295661 95.1634712 38.7295661 90.0141272 34.2704339 92.5887992 32 88.6564077 36.4591322 86.0817356 32 83.5070636 34.2704339 79.574672 38.7295661 82.1493441 38.7295661 77 43.2704339 77 43.2704339 82.1493441"></polygon>
    </g>
</svg>