<?xml version="1.0" encoding="UTF-8"?>
<svg width="100px" height="100px" viewBox="0 0 100 100" version="1.1" xmlns="http://www.w3.org/2000/svg" xmlns:xlink="http://www.w3.org/1999/xlink">
    <!-- Generator: Sketch 57.1 (83088) - https://sketch.com -->
    <title>12-rain</title>
    <desc>Created with Sketch.</desc>
    <g id="12-rain" stroke="none" stroke-width="1" fill="none" fill-rule="evenodd">
        <g id="rainy-fill" transform="translate(4.000000, 6.000000)" fill="#333333" fill-rule="nonzero">
            <path d="M61.9817708,66.6992188 L48.8442708,53.5617188 C47.2171881,51.9351274 44.5796869,51.9351274 42.9526042,53.5617188 L29.9817708,66.5325521 C14.2655287,64.9095459 1.84701985,52.4772995 0.241390483,36.7592727 C-1.36423888,21.0412458 8.28404192,6.35483068 23.3475092,1.58761271 C38.4109765,-3.17960525 54.752031,3.28182265 62.4817708,17.0617188 C71.7851417,15.4599425 81.1974121,19.2352807 86.8151834,26.8220484 C92.4329546,34.408816 93.2980868,44.5130507 89.0517976,52.9443867 C84.8055084,61.3757226 76.1720244,66.6961518 66.7317708,66.6992188 L61.9859375,66.6992188 L61.9817708,66.6992188 Z M38.5317708,69.7492187 L45.8984375,62.3825521 L53.2651042,69.7492187 C57.3322764,73.8174636 57.3316968,80.4124328 53.2638095,84.4799626 C49.1959221,88.5474924 42.6009529,88.5474924 38.5330655,84.4799626 C34.4651782,80.4124328 34.4645986,73.8174636 38.5317708,69.7492187 L38.5317708,69.7492187 Z" id="形状"></path>
        </g>
    </g>
</svg>