<?xml version="1.0" encoding="UTF-8"?>
<svg width="100px" height="100px" viewBox="0 0 100 100" version="1.1" xmlns="http://www.w3.org/2000/svg" xmlns:xlink="http://www.w3.org/1999/xlink">
    <!-- Generator: Sketch 57.1 (83088) - https://sketch.com -->
    <title>19-dust</title>
    <desc>Created with Sketch.</desc>
    <g id="19-dust" stroke="none" stroke-width="1" fill="none" fill-rule="evenodd">
        <g id="mist-fill" transform="translate(8.000000, 15.000000)" fill="#333333" fill-rule="nonzero">
            <path d="M8.36588545,0.0651041992 L25.0325521,0.0651041992 L25.0325521,8.3984375 L8.36588545,8.3984375 L8.36588545,0.0651041992 Z M58.3658854,62.5651042 L75.0325521,62.5651042 L75.0325521,70.8984375 L58.3658854,70.8984375 L58.3658854,62.5651042 Z M0.0325520508,20.8984375 L41.6992188,20.8984375 L41.6992188,29.2317708 L0.0325520508,29.2317708 L0.0325520508,20.8984375 Z M50.0325521,20.8984375 L75.0325521,20.8984375 L75.0325521,29.2317708 L50.0325521,29.2317708 L50.0325521,20.8984375 Z M8.36588545,41.7317708 L33.3658854,41.7317708 L33.3658854,50.0651042 L8.36588545,50.0651042 L8.36588545,41.7317708 Z M41.6992188,41.7317708 L83.3658854,41.7317708 L83.3658854,50.0651042 L41.6992188,50.0651042 L41.6992188,41.7317708 Z M33.3658854,0.0651041992 L83.3658854,0.0651041992 L83.3658854,8.3984375 L33.3658854,8.3984375 L33.3658854,0.0651041992 Z M0.0325520508,62.5651042 L50.0325521,62.5651042 L50.0325521,70.8984375 L0.0325520508,70.8984375 L0.0325520508,62.5651042 Z" id="形状"></path>
        </g>
    </g>
</svg>