<?xml version="1.0" encoding="UTF-8"?>
<svg width="100px" height="100px" viewBox="0 0 100 100" version="1.1" xmlns="http://www.w3.org/2000/svg" xmlns:xlink="http://www.w3.org/1999/xlink">
    <!-- Generator: Sketch 57.1 (83088) - https://sketch.com -->
    <title>17-hail</title>
    <desc>Created with Sketch.</desc>
    <g id="17-hail" stroke="none" stroke-width="1" fill="none" fill-rule="evenodd">
        <g id="hail-fill" transform="translate(4.000000, 6.000000)" fill="#333333" fill-rule="nonzero">
            <path d="M75.0442708,65.8408854 C74.7848155,60.7740142 72.2315525,56.1012199 68.1076209,53.1459383 C63.9836893,50.1906567 58.7381935,49.274724 53.8567708,50.6575521 C52.041758,42.340564 44.2520918,36.7270285 35.7880908,37.6365609 C27.3240898,38.5460933 20.9049474,45.6864918 20.8984375,54.1992188 C20.8984375,58.6992188 22.6817708,62.7783854 25.5734375,65.7742187 C10.1969717,62.0550192 -0.44732406,48.0401139 0.0963540621,32.2295933 C0.640032184,16.4190728 12.2219103,3.1684613 27.8175375,0.514302593 C43.4131647,-2.13985612 58.7262161,6.53361262 64.4692708,21.2742187 C76.5647023,18.86507 88.3975336,26.460425 91.2438505,38.4605058 C94.0901673,50.4605867 86.9290392,62.5611469 75.0401042,65.8408854 L75.0442708,65.8408854 Z M37.5651042,62.5325521 C32.9627313,62.5325521 29.2317709,58.8015916 29.2317709,54.1992188 C29.2317709,49.5968459 32.9627313,45.8658854 37.5651042,45.8658854 C42.1674771,45.8658854 45.8984375,49.5968459 45.8984375,54.1992188 C45.8984375,58.8015916 42.1674771,62.5325521 37.5651042,62.5325521 L37.5651042,62.5325521 Z M58.3984375,75.0325521 C55.4212242,75.0325521 52.6701656,73.4442278 51.1815589,70.8658854 C49.6929522,68.2875432 49.6929522,65.1108943 51.1815589,62.532552 C52.6701656,59.9542097 55.4212242,58.3658854 58.3984375,58.3658854 C63.0008103,58.3658854 66.7317704,62.096846 66.7317704,66.6992188 C66.7317704,71.3015915 63.0008103,75.0325521 58.3984375,75.0325521 Z M37.5651042,87.5325521 C34.5878909,87.5325521 31.8368323,85.9442278 30.3482256,83.3658854 C28.8596189,80.7875432 28.8596189,77.6108943 30.3482256,75.032552 C31.8368323,72.4542097 34.5878909,70.8658854 37.5651042,70.8658854 C42.1674771,70.8658854 45.8984375,74.5968459 45.8984375,79.1992188 C45.8984375,83.8015916 42.1674771,87.5325521 37.5651042,87.5325521 L37.5651042,87.5325521 Z" id="形状"></path>
        </g>
    </g>
</svg>