<?xml version="1.0" encoding="UTF-8"?>
<svg width="100px" height="100px" viewBox="0 0 100 100" version="1.1" xmlns="http://www.w3.org/2000/svg" xmlns:xlink="http://www.w3.org/1999/xlink">
    <!-- Generator: Sketch 57.1 (83088) - https://sketch.com -->
    <title>28-mostly cloudy (day)</title>
    <desc>Created with Sketch.</desc>
    <g id="28-mostly-cloudy-(day)" stroke="none" stroke-width="1" fill="none" fill-rule="evenodd">
        <g id="sun-cloudy-fill" transform="translate(4.000000, 10.000000)" fill="#333333" fill-rule="nonzero">
            <path d="M37.4984375,14.5403646 C42.1010697,5.77475159 51.1199344,0.219111724 61.0190325,0.0516279779 C70.9181306,-0.115855768 80.1197723,5.13150968 85.0162978,13.7364055 C89.9128232,22.3413014 89.7238382,32.9323042 84.5234375,41.3570312 C91.3620458,47.7971321 93.577909,57.7585081 90.1142215,66.4903082 C86.650534,75.2221082 78.2087968,80.9558798 68.8151042,80.9570312 L33.3984375,80.9528646 C21.0047889,80.9434739 9.63959783,74.0587255 3.89181281,63.0784895 C-1.8559722,52.0982535 -1.03725102,38.835636 6.01739949,28.6457135 C13.07205,18.455791 25.1977341,13.0211694 37.4984375,14.5361979 L37.4984375,14.5403646 Z M46.1276042,16.8070313 C54.5371827,20.292835 61.1622604,27.0563428 64.4734375,35.5361979 C68.8394261,34.6993749 73.354285,35.1436254 77.4734375,36.8153646 C81.4689045,28.2890268 78.5210279,18.1218908 70.5843677,13.0551742 C62.6477075,7.98845761 52.1842863,9.59390103 46.1317708,16.8070312 L46.1276042,16.8070313 Z" id="形状"></path>
        </g>
    </g>
</svg>