<?xml version="1.0" encoding="UTF-8"?>
<svg width="100px" height="100px" viewBox="0 0 100 100" version="1.1" xmlns="http://www.w3.org/2000/svg" xmlns:xlink="http://www.w3.org/1999/xlink">
    <!-- Generator: Sketch 57.1 (83088) - https://sketch.com -->
    <title>45-scattered showers (night) </title>
    <desc>Created with Sketch.</desc>
    <g id="45-scattered-showers-(night)-" stroke="none" stroke-width="1" fill="none" fill-rule="evenodd">
        <g id="moon-cloudy-fill" transform="translate(4.000000, 4.000000)" fill="#333333" fill-rule="nonzero">
            <path d="M32.0234375,16.7609375 C37.6448373,4.86926328 50.5301665,-1.78844129 63.4817708,0.506770801 C61.2917889,7.21779374 63.0567608,14.5900764 68.0484463,19.581762 C73.0401319,24.5734475 80.4124146,26.3384194 87.1234375,24.1484375 C87.4151042,25.7984375 87.5651042,27.4984375 87.5651042,29.2317708 C87.5723164,34.1459987 86.332217,38.9816697 83.9609375,43.2859375 C91.1139572,49.587318 93.6190795,59.6587144 90.2517179,68.576896 C86.8843563,77.4950776 78.3478418,83.39733 68.8151042,83.3984375 L33.3984375,83.3984375 C15.2643306,83.3881025 0.465295501,68.8830148 0.091195412,50.7527642 C-0.282904676,32.6225135 13.905192,17.5193046 32.0234375,16.7609375 L32.0234375,16.7609375 Z M41.0942708,17.6234375 C51.752909,20.1632811 60.4879386,27.7694521 64.4692708,37.9776042 C68.5965407,37.1866215 72.8615495,37.5396374 76.8026042,38.9984375 C77.7442709,37.2276042 78.4401042,35.3109375 78.8359375,33.2901042 C65.8350588,32.0918146 55.5381375,21.7913898 54.3442708,8.7901042 C48.9326655,9.86506383 44.1679279,13.0415555 41.0942708,17.6234375 L41.0942708,17.6234375 Z" id="形状"></path>
        </g>
        <polygon id="路径" fill="#333333" points="29 83 37.3333333 83 37.3333333 95.5 29 95.5"></polygon>
        <polygon id="路径" fill="#333333" points="46 83 54.3333333 83 54.3333333 96 46 96"></polygon>
        <polygon id="路径" fill="#333333" points="63 83 71.3333333 83 71.3333333 96 63 96"></polygon>
    </g>
</svg>