<?xml version="1.0" encoding="UTF-8"?>
<svg width="18px" height="18px" viewBox="0 0 18 18" version="1.1" xmlns="http://www.w3.org/2000/svg" xmlns:xlink="http://www.w3.org/1999/xlink">
    <!-- Generator: Sketch 56.2 (81672) - https://sketch.com -->
    <title>icon-thumbnail-local-zoom+</title>
    <desc>Created with Sketch.</desc>
    <g id="icon-thumbnail-local-zoom+" stroke="none" stroke-width="1" fill="none" fill-rule="evenodd">
        <g id="放大" transform="translate(1.000000, 1.000000)">
            <rect id="Rectangle" fill="#000000" opacity="0" x="0" y="0" width="16" height="16"></rect>
            <path d="M12,7 C12,4.23857625 9.76142375,2 7,2 C4.23857625,2 2,4.23857625 2,7 C2,9.76142375 4.23857625,12 7,12 C9.76142375,12 12,9.76142375 12,7 L12,7 Z M13,7 C13,10.3137085 10.3137085,13 7,13 C3.6862915,13 1,10.3137085 1,7 C1,3.6862915 3.6862915,1 7,1 C10.3137085,1 13,3.6862915 13,7 L13,7 Z M10.645,11.355 C10.4489389,11.1589389 10.4489389,10.8410611 10.645,10.645 C10.8410611,10.4489389 11.1589389,10.4489389 11.355,10.645 L13.855,13.145 C13.9818293,13.2718293 14.0313618,13.456687 13.984939,13.629939 C13.9385163,13.803191 13.803191,13.9385163 13.629939,13.984939 C13.456687,14.0313618 13.2718293,13.9818293 13.145,13.855 L10.645,11.355 Z M5,7.5 C4.72385763,7.5 4.5,7.27614237 4.5,7 C4.5,6.72385763 4.72385763,6.5 5,6.5 L9,6.5 C9.27614237,6.5 9.5,6.72385763 9.5,7 C9.5,7.27614237 9.27614237,7.5 9,7.5 L5,7.5 Z M7.5,9 C7.5,9.27614237 7.27614237,9.5 7,9.5 C6.72385763,9.5 6.5,9.27614237 6.5,9 L6.5,5 C6.5,4.72385763 6.72385763,4.5 7,4.5 C7.27614237,4.5 7.5,4.72385763 7.5,5 L7.5,9 Z" id="Shape" fill="#333333" fill-rule="nonzero"></path>
        </g>
    </g>
</svg>